<mxfile host="app.diagrams.net" modified="2023-11-12T17:16:14.063Z" agent="Mozilla/5.0 (Windows NT 10.0; Win64; x64) AppleWebKit/537.36 (KHTML, like Gecko) Chrome/119.0.0.0 Safari/537.36 Edg/119.0.0.0" etag="y1pinv-Iof3xSs8uI0P9" version="22.1.0" type="device" pages="5">
  <diagram name="Domain Model" id="9f46799a-70d6-7492-0946-bef42562c5a5">
    <mxGraphModel dx="1142" dy="753" grid="1" gridSize="10" guides="1" tooltips="1" connect="1" arrows="1" fold="1" page="1" pageScale="1" pageWidth="1100" pageHeight="850" background="#ffffff" math="0" shadow="0">
      <root>
        <mxCell id="0" />
        <mxCell id="1" parent="0" />
        <mxCell id="WoeWUnXFcX2pD16eL5IE-1" value="Terminal" style="swimlane;fontStyle=1;align=center;verticalAlign=top;childLayout=stackLayout;horizontal=1;startSize=26;horizontalStack=0;resizeParent=1;resizeParentMax=0;resizeLast=0;collapsible=1;marginBottom=0;" parent="1" vertex="1">
          <mxGeometry x="662" y="333" width="160" height="60" as="geometry" />
        </mxCell>
        <mxCell id="WoeWUnXFcX2pD16eL5IE-3" value="" style="line;strokeWidth=1;fillColor=none;align=left;verticalAlign=middle;spacingTop=-1;spacingLeft=3;spacingRight=3;rotatable=0;labelPosition=right;points=[];portConstraint=eastwest;" parent="WoeWUnXFcX2pD16eL5IE-1" vertex="1">
          <mxGeometry y="26" width="160" height="8" as="geometry" />
        </mxCell>
        <mxCell id="WoeWUnXFcX2pD16eL5IE-4" value="+ read user&#39;s Dull input" style="text;strokeColor=none;fillColor=none;align=left;verticalAlign=top;spacingLeft=4;spacingRight=4;overflow=hidden;rotatable=0;points=[[0,0.5],[1,0.5]];portConstraint=eastwest;" parent="WoeWUnXFcX2pD16eL5IE-1" vertex="1">
          <mxGeometry y="34" width="160" height="26" as="geometry" />
        </mxCell>
        <mxCell id="WoeWUnXFcX2pD16eL5IE-5" value="Keypad" style="swimlane;fontStyle=1;align=center;verticalAlign=top;childLayout=stackLayout;horizontal=1;startSize=26;horizontalStack=0;resizeParent=1;resizeParentMax=0;resizeLast=0;collapsible=1;marginBottom=0;" parent="1" vertex="1">
          <mxGeometry x="200" y="316" width="170" height="86" as="geometry" />
        </mxCell>
        <mxCell id="WoeWUnXFcX2pD16eL5IE-7" value="" style="line;strokeWidth=1;fillColor=none;align=left;verticalAlign=middle;spacingTop=-1;spacingLeft=3;spacingRight=3;rotatable=0;labelPosition=right;points=[];portConstraint=eastwest;" parent="WoeWUnXFcX2pD16eL5IE-5" vertex="1">
          <mxGeometry y="26" width="170" height="8" as="geometry" />
        </mxCell>
        <mxCell id="WoeWUnXFcX2pD16eL5IE-8" value="+ process keypress&#xa;" style="text;strokeColor=none;fillColor=none;align=left;verticalAlign=top;spacingLeft=4;spacingRight=4;overflow=hidden;rotatable=0;points=[[0,0.5],[1,0.5]];portConstraint=eastwest;" parent="WoeWUnXFcX2pD16eL5IE-5" vertex="1">
          <mxGeometry y="34" width="170" height="26" as="geometry" />
        </mxCell>
        <mxCell id="WoeWUnXFcX2pD16eL5IE-9" value="+ read mode and PIN setting&#xa;" style="text;strokeColor=none;fillColor=none;align=left;verticalAlign=top;spacingLeft=4;spacingRight=4;overflow=hidden;rotatable=0;points=[[0,0.5],[1,0.5]];portConstraint=eastwest;" parent="WoeWUnXFcX2pD16eL5IE-5" vertex="1">
          <mxGeometry y="60" width="170" height="26" as="geometry" />
        </mxCell>
        <mxCell id="WoeWUnXFcX2pD16eL5IE-10" value="HID" style="swimlane;fontStyle=1;align=center;verticalAlign=top;childLayout=stackLayout;horizontal=1;startSize=26;horizontalStack=0;resizeParent=1;resizeParentMax=0;resizeLast=0;collapsible=1;marginBottom=0;" parent="1" vertex="1">
          <mxGeometry x="199" y="487" width="160" height="60" as="geometry" />
        </mxCell>
        <mxCell id="WoeWUnXFcX2pD16eL5IE-12" value="" style="line;strokeWidth=1;fillColor=none;align=left;verticalAlign=middle;spacingTop=-1;spacingLeft=3;spacingRight=3;rotatable=0;labelPosition=right;points=[];portConstraint=eastwest;" parent="WoeWUnXFcX2pD16eL5IE-10" vertex="1">
          <mxGeometry y="26" width="160" height="8" as="geometry" />
        </mxCell>
        <mxCell id="WoeWUnXFcX2pD16eL5IE-13" value="+ act as a keyboard" style="text;strokeColor=none;fillColor=none;align=left;verticalAlign=top;spacingLeft=4;spacingRight=4;overflow=hidden;rotatable=0;points=[[0,0.5],[1,0.5]];portConstraint=eastwest;" parent="WoeWUnXFcX2pD16eL5IE-10" vertex="1">
          <mxGeometry y="34" width="160" height="26" as="geometry" />
        </mxCell>
        <mxCell id="WoeWUnXFcX2pD16eL5IE-14" value="SystemMonitor" style="swimlane;fontStyle=1;align=center;verticalAlign=top;childLayout=stackLayout;horizontal=1;startSize=26;horizontalStack=0;resizeParent=1;resizeParentMax=0;resizeLast=0;collapsible=1;marginBottom=0;" parent="1" vertex="1">
          <mxGeometry x="450" y="220" width="160" height="60" as="geometry" />
        </mxCell>
        <mxCell id="WoeWUnXFcX2pD16eL5IE-16" value="" style="line;strokeWidth=1;fillColor=none;align=left;verticalAlign=middle;spacingTop=-1;spacingLeft=3;spacingRight=3;rotatable=0;labelPosition=right;points=[];portConstraint=eastwest;" parent="WoeWUnXFcX2pD16eL5IE-14" vertex="1">
          <mxGeometry y="26" width="160" height="8" as="geometry" />
        </mxCell>
        <mxCell id="WoeWUnXFcX2pD16eL5IE-17" value="+ display system health" style="text;strokeColor=none;fillColor=none;align=left;verticalAlign=top;spacingLeft=4;spacingRight=4;overflow=hidden;rotatable=0;points=[[0,0.5],[1,0.5]];portConstraint=eastwest;" parent="WoeWUnXFcX2pD16eL5IE-14" vertex="1">
          <mxGeometry y="34" width="160" height="26" as="geometry" />
        </mxCell>
        <mxCell id="WoeWUnXFcX2pD16eL5IE-18" value="Program" style="swimlane;fontStyle=1;align=center;verticalAlign=top;childLayout=stackLayout;horizontal=1;startSize=26;horizontalStack=0;resizeParent=1;resizeParentMax=0;resizeLast=0;collapsible=1;marginBottom=0;" parent="1" vertex="1">
          <mxGeometry x="550" y="495" width="160" height="60" as="geometry" />
        </mxCell>
        <mxCell id="WoeWUnXFcX2pD16eL5IE-20" value="" style="line;strokeWidth=1;fillColor=none;align=left;verticalAlign=middle;spacingTop=-1;spacingLeft=3;spacingRight=3;rotatable=0;labelPosition=right;points=[];portConstraint=eastwest;" parent="WoeWUnXFcX2pD16eL5IE-18" vertex="1">
          <mxGeometry y="26" width="160" height="8" as="geometry" />
        </mxCell>
        <mxCell id="WoeWUnXFcX2pD16eL5IE-21" value="+ execute Dull programs" style="text;strokeColor=none;fillColor=none;align=left;verticalAlign=top;spacingLeft=4;spacingRight=4;overflow=hidden;rotatable=0;points=[[0,0.5],[1,0.5]];portConstraint=eastwest;" parent="WoeWUnXFcX2pD16eL5IE-18" vertex="1">
          <mxGeometry y="34" width="160" height="26" as="geometry" />
        </mxCell>
        <mxCell id="WoeWUnXFcX2pD16eL5IE-22" value="ProgramStep" style="swimlane;fontStyle=1;align=center;verticalAlign=top;childLayout=stackLayout;horizontal=1;startSize=26;horizontalStack=0;resizeParent=1;resizeParentMax=0;resizeLast=0;collapsible=1;marginBottom=0;" parent="1" vertex="1">
          <mxGeometry x="510" y="630" width="260" height="60" as="geometry" />
        </mxCell>
        <mxCell id="WoeWUnXFcX2pD16eL5IE-24" value="" style="line;strokeWidth=1;fillColor=none;align=left;verticalAlign=middle;spacingTop=-1;spacingLeft=3;spacingRight=3;rotatable=0;labelPosition=right;points=[];portConstraint=eastwest;" parent="WoeWUnXFcX2pD16eL5IE-22" vertex="1">
          <mxGeometry y="26" width="260" height="8" as="geometry" />
        </mxCell>
        <mxCell id="WoeWUnXFcX2pD16eL5IE-25" value="+ execute one specific keyboard command&#xa;" style="text;strokeColor=none;fillColor=none;align=left;verticalAlign=top;spacingLeft=4;spacingRight=4;overflow=hidden;rotatable=0;points=[[0,0.5],[1,0.5]];portConstraint=eastwest;" parent="WoeWUnXFcX2pD16eL5IE-22" vertex="1">
          <mxGeometry y="34" width="260" height="26" as="geometry" />
        </mxCell>
        <mxCell id="WoeWUnXFcX2pD16eL5IE-26" value="1" style="endArrow=open;html=1;endSize=12;startArrow=diamondThin;startSize=14;startFill=1;edgeStyle=orthogonalEdgeStyle;align=left;verticalAlign=bottom;exitX=0.531;exitY=1.154;exitDx=0;exitDy=0;exitPerimeter=0;entryX=0.5;entryY=0;entryDx=0;entryDy=0;" parent="1" source="WoeWUnXFcX2pD16eL5IE-21" target="WoeWUnXFcX2pD16eL5IE-22" edge="1">
          <mxGeometry x="-1" y="3" relative="1" as="geometry">
            <mxPoint x="630" y="590" as="sourcePoint" />
            <mxPoint x="790" y="590" as="targetPoint" />
            <Array as="points">
              <mxPoint x="635" y="590" />
              <mxPoint x="640" y="590" />
            </Array>
          </mxGeometry>
        </mxCell>
        <mxCell id="WoeWUnXFcX2pD16eL5IE-29" value="Create" style="endArrow=open;endSize=12;dashed=1;html=1;align=left;entryX=0.896;entryY=0.083;entryDx=0;entryDy=0;entryPerimeter=0;exitX=0.506;exitY=1.192;exitDx=0;exitDy=0;exitPerimeter=0;" parent="1" source="WoeWUnXFcX2pD16eL5IE-4" target="WoeWUnXFcX2pD16eL5IE-22" edge="1">
          <mxGeometry width="160" relative="1" as="geometry">
            <mxPoint x="380" y="340" as="sourcePoint" />
            <mxPoint x="540" y="340" as="targetPoint" />
          </mxGeometry>
        </mxCell>
        <mxCell id="WoeWUnXFcX2pD16eL5IE-30" value="Start" style="endArrow=open;endSize=12;dashed=1;html=1;align=left;exitX=1.031;exitY=0.154;exitDx=0;exitDy=0;exitPerimeter=0;entryX=0;entryY=0.5;entryDx=0;entryDy=0;" parent="1" source="WoeWUnXFcX2pD16eL5IE-13" target="WoeWUnXFcX2pD16eL5IE-18" edge="1">
          <mxGeometry width="160" relative="1" as="geometry">
            <mxPoint x="280" y="650" as="sourcePoint" />
            <mxPoint x="440" y="650" as="targetPoint" />
          </mxGeometry>
        </mxCell>
        <mxCell id="WoeWUnXFcX2pD16eL5IE-31" value="&lt;div&gt;Wrong PIN&lt;/div&gt;" style="endArrow=open;endSize=12;dashed=1;html=1;align=left;exitX=1;exitY=0.25;exitDx=0;exitDy=0;entryX=-0.019;entryY=0;entryDx=0;entryDy=0;entryPerimeter=0;" parent="1" source="WoeWUnXFcX2pD16eL5IE-5" target="WoeWUnXFcX2pD16eL5IE-17" edge="1">
          <mxGeometry width="160" relative="1" as="geometry">
            <mxPoint x="320" y="450" as="sourcePoint" />
            <mxPoint x="480" y="450" as="targetPoint" />
          </mxGeometry>
        </mxCell>
        <mxCell id="WoeWUnXFcX2pD16eL5IE-32" value="Low Memory" style="endArrow=open;endSize=12;dashed=1;html=1;align=left;exitX=0;exitY=0.25;exitDx=0;exitDy=0;entryX=0.994;entryY=0.038;entryDx=0;entryDy=0;entryPerimeter=0;" parent="1" source="WoeWUnXFcX2pD16eL5IE-1" target="WoeWUnXFcX2pD16eL5IE-17" edge="1">
          <mxGeometry width="160" relative="1" as="geometry">
            <mxPoint x="480" y="256" as="sourcePoint" />
            <mxPoint x="730" y="220" as="targetPoint" />
          </mxGeometry>
        </mxCell>
        <mxCell id="WoeWUnXFcX2pD16eL5IE-33" value="&lt;div&gt;Input&lt;/div&gt;" style="endArrow=open;endSize=12;dashed=1;html=1;align=left;exitX=0.475;exitY=1.077;exitDx=0;exitDy=0;exitPerimeter=0;entryX=0.5;entryY=0;entryDx=0;entryDy=0;" parent="1" source="WoeWUnXFcX2pD16eL5IE-9" target="WoeWUnXFcX2pD16eL5IE-10" edge="1">
          <mxGeometry width="160" relative="1" as="geometry">
            <mxPoint x="140" y="730" as="sourcePoint" />
            <mxPoint x="300" y="730" as="targetPoint" />
          </mxGeometry>
        </mxCell>
        <mxCell id="ebd_MAU4O3hOx5mjhQO0-1" value="Set PIN" style="endArrow=open;endSize=12;dashed=1;html=1;align=left;entryX=1;entryY=0.5;entryDx=0;entryDy=0;exitX=0;exitY=0.5;exitDx=0;exitDy=0;" parent="1" source="WoeWUnXFcX2pD16eL5IE-1" target="WoeWUnXFcX2pD16eL5IE-8" edge="1">
          <mxGeometry width="160" relative="1" as="geometry">
            <mxPoint x="660" y="360" as="sourcePoint" />
            <mxPoint x="476.96000000000004" y="234" as="targetPoint" />
          </mxGeometry>
        </mxCell>
      </root>
    </mxGraphModel>
  </diagram>
  <diagram id="LXat12-hiHekpg5oblxC" name="Component Diagram">
    <mxGraphModel dx="704" dy="695" grid="1" gridSize="10" guides="1" tooltips="1" connect="1" arrows="1" fold="1" page="1" pageScale="1" pageWidth="827" pageHeight="1169" math="0" shadow="0">
      <root>
        <mxCell id="-MBQPWasTD13MprSU9UX-0" />
        <mxCell id="-MBQPWasTD13MprSU9UX-1" parent="-MBQPWasTD13MprSU9UX-0" />
        <mxCell id="-MBQPWasTD13MprSU9UX-2" value="ParcLib" style="shape=module;align=left;spacingLeft=20;align=center;verticalAlign=top;" parent="-MBQPWasTD13MprSU9UX-1" vertex="1">
          <mxGeometry x="210" y="420" width="330" height="200" as="geometry" />
        </mxCell>
        <mxCell id="-MBQPWasTD13MprSU9UX-3" value="ParcApp" style="shape=module;align=left;spacingLeft=20;align=center;verticalAlign=top;" parent="-MBQPWasTD13MprSU9UX-1" vertex="1">
          <mxGeometry x="200" y="240" width="110" height="70" as="geometry" />
        </mxCell>
        <mxCell id="-MBQPWasTD13MprSU9UX-4" value="PcbParcApp" style="shape=module;align=left;spacingLeft=20;align=center;verticalAlign=top;" parent="-MBQPWasTD13MprSU9UX-1" vertex="1">
          <mxGeometry x="322" y="240" width="106" height="70" as="geometry" />
        </mxCell>
        <mxCell id="-MBQPWasTD13MprSU9UX-5" value="UnoParcApp" style="shape=module;align=left;spacingLeft=20;align=center;verticalAlign=top;" parent="-MBQPWasTD13MprSU9UX-1" vertex="1">
          <mxGeometry x="440" y="240" width="106" height="70" as="geometry" />
        </mxCell>
        <mxCell id="-MBQPWasTD13MprSU9UX-6" value="Core" style="shape=folder;fontStyle=1;spacingTop=10;tabWidth=40;tabHeight=14;tabPosition=left;html=1;" parent="-MBQPWasTD13MprSU9UX-1" vertex="1">
          <mxGeometry x="344" y="510" width="70" height="50" as="geometry" />
        </mxCell>
        <mxCell id="-MBQPWasTD13MprSU9UX-7" value="Feather" style="shape=folder;fontStyle=1;spacingTop=10;tabWidth=40;tabHeight=14;tabPosition=left;html=1;" parent="-MBQPWasTD13MprSU9UX-1" vertex="1">
          <mxGeometry x="240" y="510" width="70" height="50" as="geometry" />
        </mxCell>
        <mxCell id="-MBQPWasTD13MprSU9UX-13" value="Use" style="endArrow=open;endSize=12;dashed=1;html=1;align=left;exitX=0.5;exitY=1;exitDx=0;exitDy=0;entryX=0;entryY=0;entryDx=20;entryDy=0;entryPerimeter=0;" parent="-MBQPWasTD13MprSU9UX-1" source="-MBQPWasTD13MprSU9UX-3" target="-MBQPWasTD13MprSU9UX-7" edge="1">
          <mxGeometry x="-0.1006" y="-2" width="160" relative="1" as="geometry">
            <mxPoint x="80" y="360" as="sourcePoint" />
            <mxPoint x="240" y="360" as="targetPoint" />
            <mxPoint as="offset" />
          </mxGeometry>
        </mxCell>
        <mxCell id="-MBQPWasTD13MprSU9UX-14" value="Use" style="endArrow=open;endSize=12;dashed=1;html=1;align=left;exitX=0.75;exitY=1;exitDx=0;exitDy=0;entryX=0;entryY=0;entryDx=20;entryDy=0;entryPerimeter=0;" parent="-MBQPWasTD13MprSU9UX-1" source="-MBQPWasTD13MprSU9UX-3" target="-MBQPWasTD13MprSU9UX-6" edge="1">
          <mxGeometry x="-0.3735" y="-19" width="160" relative="1" as="geometry">
            <mxPoint x="200" y="750" as="sourcePoint" />
            <mxPoint x="360" y="750" as="targetPoint" />
            <mxPoint x="-1" as="offset" />
          </mxGeometry>
        </mxCell>
        <mxCell id="-MBQPWasTD13MprSU9UX-15" value="Use" style="endArrow=open;endSize=12;dashed=1;html=1;align=left;exitX=0.25;exitY=1;exitDx=0;exitDy=0;entryX=0;entryY=0;entryDx=40;entryDy=0;entryPerimeter=0;" parent="-MBQPWasTD13MprSU9UX-1" source="-MBQPWasTD13MprSU9UX-4" target="-MBQPWasTD13MprSU9UX-7" edge="1">
          <mxGeometry x="-0.3168" y="5" width="160" relative="1" as="geometry">
            <mxPoint x="220" y="810" as="sourcePoint" />
            <mxPoint x="380" y="810" as="targetPoint" />
            <mxPoint as="offset" />
          </mxGeometry>
        </mxCell>
        <mxCell id="-MBQPWasTD13MprSU9UX-16" value="Use" style="endArrow=open;endSize=12;dashed=1;html=1;align=left;exitX=0.5;exitY=1;exitDx=0;exitDy=0;entryX=0;entryY=0;entryDx=40;entryDy=0;entryPerimeter=0;" parent="-MBQPWasTD13MprSU9UX-1" source="-MBQPWasTD13MprSU9UX-4" target="-MBQPWasTD13MprSU9UX-6" edge="1">
          <mxGeometry x="-0.1018" y="-4" width="160" relative="1" as="geometry">
            <mxPoint x="290" y="860" as="sourcePoint" />
            <mxPoint x="450" y="860" as="targetPoint" />
            <mxPoint as="offset" />
          </mxGeometry>
        </mxCell>
        <mxCell id="-MBQPWasTD13MprSU9UX-17" value="Use" style="endArrow=open;endSize=12;dashed=1;html=1;align=left;exitX=0.5;exitY=1;exitDx=0;exitDy=0;entryX=0;entryY=0;entryDx=55;entryDy=14;entryPerimeter=0;" parent="-MBQPWasTD13MprSU9UX-1" source="-MBQPWasTD13MprSU9UX-5" target="-MBQPWasTD13MprSU9UX-6" edge="1">
          <mxGeometry x="-0.1469" y="-3" width="160" relative="1" as="geometry">
            <mxPoint x="490" y="730" as="sourcePoint" />
            <mxPoint x="650" y="730" as="targetPoint" />
            <mxPoint as="offset" />
          </mxGeometry>
        </mxCell>
        <mxCell id="bgX_V9oAbquFDQypCYJ6-0" value="Simulator" style="shape=module;align=left;spacingLeft=20;align=center;verticalAlign=top;" parent="-MBQPWasTD13MprSU9UX-1" vertex="1">
          <mxGeometry x="560" y="240" width="106" height="70" as="geometry" />
        </mxCell>
        <mxCell id="bgX_V9oAbquFDQypCYJ6-1" value="Use" style="endArrow=open;endSize=12;dashed=1;html=1;align=left;exitX=0.5;exitY=1;exitDx=0;exitDy=0;entryX=0;entryY=0;entryDx=70;entryDy=14;entryPerimeter=0;" parent="-MBQPWasTD13MprSU9UX-1" source="bgX_V9oAbquFDQypCYJ6-0" target="-MBQPWasTD13MprSU9UX-6" edge="1">
          <mxGeometry x="-0.1155" y="-7" width="160" relative="1" as="geometry">
            <mxPoint x="503" y="320" as="sourcePoint" />
            <mxPoint x="409" y="534" as="targetPoint" />
            <mxPoint as="offset" />
          </mxGeometry>
        </mxCell>
      </root>
    </mxGraphModel>
  </diagram>
  <diagram id="cTtKM-cefaT5YGLItZzo" name="ParcApp">
    <mxGraphModel dx="704" dy="695" grid="1" gridSize="10" guides="1" tooltips="1" connect="1" arrows="1" fold="1" page="1" pageScale="1" pageWidth="827" pageHeight="1169" math="0" shadow="0">
      <root>
        <mxCell id="NgNixX1Y_Vf6koQVWEjy-0" />
        <mxCell id="NgNixX1Y_Vf6koQVWEjy-1" parent="NgNixX1Y_Vf6koQVWEjy-0" />
        <mxCell id="NgNixX1Y_Vf6koQVWEjy-3" value="&lt;p style=&quot;margin: 0px ; margin-top: 4px ; text-align: center ; text-decoration: underline&quot;&gt;&lt;b&gt;Constants: file&lt;br&gt;&lt;/b&gt;&lt;/p&gt;&lt;hr&gt;&lt;p style=&quot;margin: 0px ; margin-left: 8px&quot;&gt;Pin_A = 7&lt;br&gt;Pin_B = 6&lt;br&gt;Pin_C = 5&lt;br&gt;Pin_D = 4&lt;br&gt;Pin_E = 0&lt;br&gt;Pin_M0 = 1&lt;br&gt;Pin_M1 = 2&lt;br&gt;Pin_C1 = 10&lt;br&gt;Pin_C2 = 9&lt;br&gt;Pin_C3 = 6&lt;/p&gt;&lt;p style=&quot;margin: 0px ; margin-left: 8px&quot;&gt; Pin_C4 = 5&lt;br&gt;Usb_YEL = 11&lt;br&gt;Usb_ORA = 12&lt;/p&gt;" style="verticalAlign=top;align=left;overflow=fill;fontSize=12;fontFamily=Helvetica;html=1;fillColor=#ffe6cc;strokeColor=#d79b00;" parent="NgNixX1Y_Vf6koQVWEjy-1" vertex="1">
          <mxGeometry x="480" y="10" width="110" height="230" as="geometry" />
        </mxCell>
        <mxCell id="NgNixX1Y_Vf6koQVWEjy-5" value="&lt;p style=&quot;margin: 0px ; margin-top: 4px ; text-align: center ; text-decoration: underline&quot;&gt;&lt;b&gt;KnownKeycodes: struct&lt;br&gt;&lt;/b&gt;&lt;/p&gt;&lt;hr&gt;&lt;p style=&quot;margin: 0px ; margin-left: 8px&quot;&gt;UsbRadix = 16;&lt;br&gt;UsbKeyCodeDel = 0xD4;&lt;br&gt;UsbKeyCodeTab = 0xB3;&lt;br&gt;UsbKeyCodeEnter = 0xB0;&lt;br&gt;UsbKeyCodeSpace = &#39; &#39;;&lt;br&gt;BleRadix = 16;&lt;br&gt;BleKeyCodeDel = 0x4C;&lt;br&gt;BleKeyCodeTab = 0x2B;&lt;br&gt;BleKeyCodeEnter = 0x28;&lt;br&gt;BleKeyCodeSpace = 0x2C;&lt;/p&gt;" style="verticalAlign=top;align=left;overflow=fill;fontSize=12;fontFamily=Helvetica;html=1;fillColor=#ffe6cc;strokeColor=#d79b00;" parent="NgNixX1Y_Vf6koQVWEjy-1" vertex="1">
          <mxGeometry x="600" y="170" width="180" height="190" as="geometry" />
        </mxCell>
        <mxCell id="NgNixX1Y_Vf6koQVWEjy-8" value="Adafruit_MCP23008" style="swimlane;fontStyle=1;align=center;verticalAlign=top;childLayout=stackLayout;horizontal=1;startSize=26;horizontalStack=0;resizeParent=1;resizeParentMax=0;resizeLast=0;collapsible=1;marginBottom=0;fillColor=#fff2cc;strokeColor=#d6b656;" parent="NgNixX1Y_Vf6koQVWEjy-1" vertex="1">
          <mxGeometry x="310" y="150" width="160" height="60" as="geometry" />
        </mxCell>
        <mxCell id="NgNixX1Y_Vf6koQVWEjy-10" value="" style="line;strokeWidth=1;fillColor=#fff2cc;align=left;verticalAlign=middle;spacingTop=-1;spacingLeft=3;spacingRight=3;rotatable=0;labelPosition=right;points=[];portConstraint=eastwest;strokeColor=#d6b656;" parent="NgNixX1Y_Vf6koQVWEjy-8" vertex="1">
          <mxGeometry y="26" width="160" height="8" as="geometry" />
        </mxCell>
        <mxCell id="NgNixX1Y_Vf6koQVWEjy-11" value="+ readGPIO(): uint8_t" style="text;strokeColor=#d6b656;fillColor=#fff2cc;align=left;verticalAlign=top;spacingLeft=4;spacingRight=4;overflow=hidden;rotatable=0;points=[[0,0.5],[1,0.5]];portConstraint=eastwest;" parent="NgNixX1Y_Vf6koQVWEjy-8" vertex="1">
          <mxGeometry y="34" width="160" height="26" as="geometry" />
        </mxCell>
        <mxCell id="NgNixX1Y_Vf6koQVWEjy-12" value="KeypadHw" style="swimlane;fontStyle=1;align=center;verticalAlign=top;childLayout=stackLayout;horizontal=1;startSize=26;horizontalStack=0;resizeParent=1;resizeParentMax=0;resizeLast=0;collapsible=1;marginBottom=0;fillColor=#ffe6cc;strokeColor=#d79b00;" parent="NgNixX1Y_Vf6koQVWEjy-1" vertex="1">
          <mxGeometry x="70" y="30" width="160" height="86" as="geometry" />
        </mxCell>
        <mxCell id="NgNixX1Y_Vf6koQVWEjy-24" value="Use" style="endArrow=open;endSize=12;dashed=1;html=1;entryX=0;entryY=0.25;entryDx=0;entryDy=0;" parent="NgNixX1Y_Vf6koQVWEjy-12" target="NgNixX1Y_Vf6koQVWEjy-3" edge="1">
          <mxGeometry width="160" relative="1" as="geometry">
            <mxPoint x="160" y="20" as="sourcePoint" />
            <mxPoint x="320" y="20" as="targetPoint" />
          </mxGeometry>
        </mxCell>
        <mxCell id="NgNixX1Y_Vf6koQVWEjy-14" value="" style="line;strokeWidth=1;fillColor=none;align=left;verticalAlign=middle;spacingTop=-1;spacingLeft=3;spacingRight=3;rotatable=0;labelPosition=right;points=[];portConstraint=eastwest;" parent="NgNixX1Y_Vf6koQVWEjy-12" vertex="1">
          <mxGeometry y="26" width="160" height="8" as="geometry" />
        </mxCell>
        <mxCell id="NgNixX1Y_Vf6koQVWEjy-15" value="+ pinMode&lt;uint8_t&gt;(): void" style="text;strokeColor=#d79b00;fillColor=#ffe6cc;align=left;verticalAlign=top;spacingLeft=4;spacingRight=4;overflow=hidden;rotatable=0;points=[[0,0.5],[1,0.5]];portConstraint=eastwest;" parent="NgNixX1Y_Vf6koQVWEjy-12" vertex="1">
          <mxGeometry y="34" width="160" height="26" as="geometry" />
        </mxCell>
        <mxCell id="NgNixX1Y_Vf6koQVWEjy-20" value="+ pressed&lt;uint8_t&gt;(): bool" style="text;strokeColor=#d79b00;fillColor=#ffe6cc;align=left;verticalAlign=top;spacingLeft=4;spacingRight=4;overflow=hidden;rotatable=0;points=[[0,0.5],[1,0.5]];portConstraint=eastwest;" parent="NgNixX1Y_Vf6koQVWEjy-12" vertex="1">
          <mxGeometry y="60" width="160" height="26" as="geometry" />
        </mxCell>
        <mxCell id="NgNixX1Y_Vf6koQVWEjy-16" value="SoftwareSerial" style="swimlane;fontStyle=1;align=center;verticalAlign=top;childLayout=stackLayout;horizontal=1;startSize=26;horizontalStack=0;resizeParent=1;resizeParentMax=0;resizeLast=0;collapsible=1;marginBottom=0;fillColor=#fff2cc;strokeColor=#d6b656;" parent="NgNixX1Y_Vf6koQVWEjy-1" vertex="1">
          <mxGeometry x="310" y="240" width="160" height="86" as="geometry" />
        </mxCell>
        <mxCell id="NgNixX1Y_Vf6koQVWEjy-18" value="" style="line;strokeWidth=1;fillColor=#fff2cc;align=left;verticalAlign=middle;spacingTop=-1;spacingLeft=3;spacingRight=3;rotatable=0;labelPosition=right;points=[];portConstraint=eastwest;strokeColor=#d6b656;" parent="NgNixX1Y_Vf6koQVWEjy-16" vertex="1">
          <mxGeometry y="26" width="160" height="8" as="geometry" />
        </mxCell>
        <mxCell id="NgNixX1Y_Vf6koQVWEjy-19" value="+ print(const char*): void" style="text;strokeColor=#d6b656;fillColor=#fff2cc;align=left;verticalAlign=top;spacingLeft=4;spacingRight=4;overflow=hidden;rotatable=0;points=[[0,0.5],[1,0.5]];portConstraint=eastwest;" parent="NgNixX1Y_Vf6koQVWEjy-16" vertex="1">
          <mxGeometry y="34" width="160" height="26" as="geometry" />
        </mxCell>
        <mxCell id="NgNixX1Y_Vf6koQVWEjy-21" value="+ println(const char*): void" style="text;strokeColor=#d6b656;fillColor=#fff2cc;align=left;verticalAlign=top;spacingLeft=4;spacingRight=4;overflow=hidden;rotatable=0;points=[[0,0.5],[1,0.5]];portConstraint=eastwest;" parent="NgNixX1Y_Vf6koQVWEjy-16" vertex="1">
          <mxGeometry y="60" width="160" height="26" as="geometry" />
        </mxCell>
        <mxCell id="NgNixX1Y_Vf6koQVWEjy-23" value="1" style="endArrow=open;html=1;endSize=12;startArrow=diamondThin;startSize=14;startFill=1;edgeStyle=orthogonalEdgeStyle;align=left;verticalAlign=bottom;exitX=1;exitY=0.5;exitDx=0;exitDy=0;entryX=0;entryY=0.25;entryDx=0;entryDy=0;" parent="NgNixX1Y_Vf6koQVWEjy-1" source="NgNixX1Y_Vf6koQVWEjy-15" target="NgNixX1Y_Vf6koQVWEjy-8" edge="1">
          <mxGeometry x="-1" y="3" relative="1" as="geometry">
            <mxPoint x="140" y="490" as="sourcePoint" />
            <mxPoint x="300" y="490" as="targetPoint" />
          </mxGeometry>
        </mxCell>
        <mxCell id="NgNixX1Y_Vf6koQVWEjy-25" value="KeypadAo" style="swimlane;fontStyle=1;align=center;verticalAlign=top;childLayout=stackLayout;horizontal=1;startSize=26;horizontalStack=0;resizeParent=1;resizeParentMax=0;resizeLast=0;collapsible=1;marginBottom=0;" parent="NgNixX1Y_Vf6koQVWEjy-1" vertex="1">
          <mxGeometry x="30" y="206" width="160" height="86" as="geometry" />
        </mxCell>
        <mxCell id="NgNixX1Y_Vf6koQVWEjy-27" value="" style="line;strokeWidth=1;fillColor=none;align=left;verticalAlign=middle;spacingTop=-1;spacingLeft=3;spacingRight=3;rotatable=0;labelPosition=right;points=[];portConstraint=eastwest;" parent="NgNixX1Y_Vf6koQVWEjy-25" vertex="1">
          <mxGeometry y="26" width="160" height="8" as="geometry" />
        </mxCell>
        <mxCell id="NgNixX1Y_Vf6koQVWEjy-28" value="+ load(): void" style="text;strokeColor=none;fillColor=none;align=left;verticalAlign=top;spacingLeft=4;spacingRight=4;overflow=hidden;rotatable=0;points=[[0,0.5],[1,0.5]];portConstraint=eastwest;" parent="NgNixX1Y_Vf6koQVWEjy-25" vertex="1">
          <mxGeometry y="34" width="160" height="26" as="geometry" />
        </mxCell>
        <mxCell id="gQPW2DBEitB-CbbnBLBv-0" value="+ run(): void" style="text;strokeColor=none;fillColor=none;align=left;verticalAlign=top;spacingLeft=4;spacingRight=4;overflow=hidden;rotatable=0;points=[[0,0.5],[1,0.5]];portConstraint=eastwest;" parent="NgNixX1Y_Vf6koQVWEjy-25" vertex="1">
          <mxGeometry y="60" width="160" height="26" as="geometry" />
        </mxCell>
        <mxCell id="NgNixX1Y_Vf6koQVWEjy-29" value="1" style="endArrow=open;html=1;endSize=12;startArrow=diamondThin;startSize=14;startFill=0;edgeStyle=orthogonalEdgeStyle;align=left;verticalAlign=bottom;exitX=0.5;exitY=0;exitDx=0;exitDy=0;entryX=0.744;entryY=0.962;entryDx=0;entryDy=0;entryPerimeter=0;" parent="NgNixX1Y_Vf6koQVWEjy-1" source="NgNixX1Y_Vf6koQVWEjy-25" target="NgNixX1Y_Vf6koQVWEjy-20" edge="1">
          <mxGeometry x="-1" y="3" relative="1" as="geometry">
            <mxPoint x="130" y="430" as="sourcePoint" />
            <mxPoint x="200" y="170" as="targetPoint" />
          </mxGeometry>
        </mxCell>
        <mxCell id="NgNixX1Y_Vf6koQVWEjy-31" value="Adafruit_BluefruitLE_SPI" style="swimlane;fontStyle=1;align=center;verticalAlign=top;childLayout=stackLayout;horizontal=1;startSize=26;horizontalStack=0;resizeParent=1;resizeParentMax=0;resizeLast=0;collapsible=1;marginBottom=0;fillColor=#fff2cc;strokeColor=#d6b656;" parent="NgNixX1Y_Vf6koQVWEjy-1" vertex="1">
          <mxGeometry x="310" y="340" width="160" height="112" as="geometry" />
        </mxCell>
        <mxCell id="NgNixX1Y_Vf6koQVWEjy-33" value="" style="line;strokeWidth=1;fillColor=#fff2cc;align=left;verticalAlign=middle;spacingTop=-1;spacingLeft=3;spacingRight=3;rotatable=0;labelPosition=right;points=[];portConstraint=eastwest;strokeColor=#d6b656;" parent="NgNixX1Y_Vf6koQVWEjy-31" vertex="1">
          <mxGeometry y="26" width="160" height="8" as="geometry" />
        </mxCell>
        <mxCell id="NgNixX1Y_Vf6koQVWEjy-34" value="+ begin(): void" style="text;strokeColor=#d6b656;fillColor=#fff2cc;align=left;verticalAlign=top;spacingLeft=4;spacingRight=4;overflow=hidden;rotatable=0;points=[[0,0.5],[1,0.5]];portConstraint=eastwest;" parent="NgNixX1Y_Vf6koQVWEjy-31" vertex="1">
          <mxGeometry y="34" width="160" height="26" as="geometry" />
        </mxCell>
        <mxCell id="NgNixX1Y_Vf6koQVWEjy-35" value="+ print(const char*): void" style="text;strokeColor=#d6b656;fillColor=#fff2cc;align=left;verticalAlign=top;spacingLeft=4;spacingRight=4;overflow=hidden;rotatable=0;points=[[0,0.5],[1,0.5]];portConstraint=eastwest;" parent="NgNixX1Y_Vf6koQVWEjy-31" vertex="1">
          <mxGeometry y="60" width="160" height="26" as="geometry" />
        </mxCell>
        <mxCell id="NgNixX1Y_Vf6koQVWEjy-36" value="+ println(const char*): void" style="text;strokeColor=#d6b656;fillColor=#fff2cc;align=left;verticalAlign=top;spacingLeft=4;spacingRight=4;overflow=hidden;rotatable=0;points=[[0,0.5],[1,0.5]];portConstraint=eastwest;" parent="NgNixX1Y_Vf6koQVWEjy-31" vertex="1">
          <mxGeometry y="86" width="160" height="26" as="geometry" />
        </mxCell>
        <mxCell id="NgNixX1Y_Vf6koQVWEjy-37" value="HidBle" style="swimlane;fontStyle=1;align=center;verticalAlign=top;childLayout=stackLayout;horizontal=1;startSize=26;horizontalStack=0;resizeParent=1;resizeParentMax=0;resizeLast=0;collapsible=1;marginBottom=0;fillColor=#ffe6cc;strokeColor=#d79b00;" parent="NgNixX1Y_Vf6koQVWEjy-1" vertex="1">
          <mxGeometry x="30" y="340" width="190" height="112" as="geometry" />
        </mxCell>
        <mxCell id="NgNixX1Y_Vf6koQVWEjy-39" value="" style="line;strokeWidth=1;fillColor=none;align=left;verticalAlign=middle;spacingTop=-1;spacingLeft=3;spacingRight=3;rotatable=0;labelPosition=right;points=[];portConstraint=eastwest;" parent="NgNixX1Y_Vf6koQVWEjy-37" vertex="1">
          <mxGeometry y="26" width="190" height="8" as="geometry" />
        </mxCell>
        <mxCell id="NgNixX1Y_Vf6koQVWEjy-40" value="+ sendKeyCode(KeyCode): void" style="text;strokeColor=#d79b00;fillColor=#ffe6cc;align=left;verticalAlign=top;spacingLeft=4;spacingRight=4;overflow=hidden;rotatable=0;points=[[0,0.5],[1,0.5]];portConstraint=eastwest;" parent="NgNixX1Y_Vf6koQVWEjy-37" vertex="1">
          <mxGeometry y="34" width="190" height="26" as="geometry" />
        </mxCell>
        <mxCell id="NgNixX1Y_Vf6koQVWEjy-45" value="+ print(const char*): void" style="text;strokeColor=#d79b00;fillColor=#ffe6cc;align=left;verticalAlign=top;spacingLeft=4;spacingRight=4;overflow=hidden;rotatable=0;points=[[0,0.5],[1,0.5]];portConstraint=eastwest;" parent="NgNixX1Y_Vf6koQVWEjy-37" vertex="1">
          <mxGeometry y="60" width="190" height="26" as="geometry" />
        </mxCell>
        <mxCell id="NgNixX1Y_Vf6koQVWEjy-46" value="+ println(const char*): void" style="text;strokeColor=#d79b00;fillColor=#ffe6cc;align=left;verticalAlign=top;spacingLeft=4;spacingRight=4;overflow=hidden;rotatable=0;points=[[0,0.5],[1,0.5]];portConstraint=eastwest;" parent="NgNixX1Y_Vf6koQVWEjy-37" vertex="1">
          <mxGeometry y="86" width="190" height="26" as="geometry" />
        </mxCell>
        <mxCell id="NgNixX1Y_Vf6koQVWEjy-43" value="1" style="endArrow=open;html=1;endSize=12;startArrow=diamondThin;startSize=14;startFill=1;edgeStyle=orthogonalEdgeStyle;align=left;verticalAlign=bottom;exitX=1;exitY=0.5;exitDx=0;exitDy=0;entryX=-0.019;entryY=0.269;entryDx=0;entryDy=0;entryPerimeter=0;" parent="NgNixX1Y_Vf6koQVWEjy-1" target="NgNixX1Y_Vf6koQVWEjy-34" edge="1">
          <mxGeometry x="-1" y="3" relative="1" as="geometry">
            <mxPoint x="220" y="379" as="sourcePoint" />
            <mxPoint x="280" y="510" as="targetPoint" />
          </mxGeometry>
        </mxCell>
        <mxCell id="NgNixX1Y_Vf6koQVWEjy-47" value="Program" style="swimlane;fontStyle=1;align=center;verticalAlign=top;childLayout=stackLayout;horizontal=1;startSize=26;horizontalStack=0;resizeParent=1;resizeParentMax=0;resizeLast=0;collapsible=1;marginBottom=0;" parent="NgNixX1Y_Vf6koQVWEjy-1" vertex="1">
          <mxGeometry x="265" y="730" width="270" height="112" as="geometry" />
        </mxCell>
        <mxCell id="NgNixX1Y_Vf6koQVWEjy-49" value="" style="line;strokeWidth=1;fillColor=none;align=left;verticalAlign=middle;spacingTop=-1;spacingLeft=3;spacingRight=3;rotatable=0;labelPosition=right;points=[];portConstraint=eastwest;" parent="NgNixX1Y_Vf6koQVWEjy-47" vertex="1">
          <mxGeometry y="26" width="270" height="8" as="geometry" />
        </mxCell>
        <mxCell id="NgNixX1Y_Vf6koQVWEjy-50" value="+ duration(): size_t" style="text;strokeColor=none;fillColor=none;align=left;verticalAlign=top;spacingLeft=4;spacingRight=4;overflow=hidden;rotatable=0;points=[[0,0.5],[1,0.5]];portConstraint=eastwest;" parent="NgNixX1Y_Vf6koQVWEjy-47" vertex="1">
          <mxGeometry y="34" width="270" height="26" as="geometry" />
        </mxCell>
        <mxCell id="NgNixX1Y_Vf6koQVWEjy-51" value="+ appendStep(ProgramStep*): ProgramStep*" style="text;strokeColor=none;fillColor=none;align=left;verticalAlign=top;spacingLeft=4;spacingRight=4;overflow=hidden;rotatable=0;points=[[0,0.5],[1,0.5]];portConstraint=eastwest;" parent="NgNixX1Y_Vf6koQVWEjy-47" vertex="1">
          <mxGeometry y="60" width="270" height="26" as="geometry" />
        </mxCell>
        <mxCell id="NgNixX1Y_Vf6koQVWEjy-52" value="+ play(): void" style="text;strokeColor=none;fillColor=none;align=left;verticalAlign=top;spacingLeft=4;spacingRight=4;overflow=hidden;rotatable=0;points=[[0,0.5],[1,0.5]];portConstraint=eastwest;" parent="NgNixX1Y_Vf6koQVWEjy-47" vertex="1">
          <mxGeometry y="86" width="270" height="26" as="geometry" />
        </mxCell>
        <mxCell id="NgNixX1Y_Vf6koQVWEjy-53" value="HidAo" style="swimlane;fontStyle=1;align=center;verticalAlign=top;childLayout=stackLayout;horizontal=1;startSize=26;horizontalStack=0;resizeParent=1;resizeParentMax=0;resizeLast=0;collapsible=1;marginBottom=0;" parent="NgNixX1Y_Vf6koQVWEjy-1" vertex="1">
          <mxGeometry x="20" y="555" width="160" height="112" as="geometry" />
        </mxCell>
        <mxCell id="NgNixX1Y_Vf6koQVWEjy-55" value="" style="line;strokeWidth=1;fillColor=none;align=left;verticalAlign=middle;spacingTop=-1;spacingLeft=3;spacingRight=3;rotatable=0;labelPosition=right;points=[];portConstraint=eastwest;" parent="NgNixX1Y_Vf6koQVWEjy-53" vertex="1">
          <mxGeometry y="26" width="160" height="8" as="geometry" />
        </mxCell>
        <mxCell id="NgNixX1Y_Vf6koQVWEjy-56" value="+ load(): void" style="text;strokeColor=none;fillColor=none;align=left;verticalAlign=top;spacingLeft=4;spacingRight=4;overflow=hidden;rotatable=0;points=[[0,0.5],[1,0.5]];portConstraint=eastwest;" parent="NgNixX1Y_Vf6koQVWEjy-53" vertex="1">
          <mxGeometry y="34" width="160" height="26" as="geometry" />
        </mxCell>
        <mxCell id="NgNixX1Y_Vf6koQVWEjy-62" value="+ run(): void" style="text;strokeColor=none;fillColor=none;align=left;verticalAlign=top;spacingLeft=4;spacingRight=4;overflow=hidden;rotatable=0;points=[[0,0.5],[1,0.5]];portConstraint=eastwest;" parent="NgNixX1Y_Vf6koQVWEjy-53" vertex="1">
          <mxGeometry y="60" width="160" height="26" as="geometry" />
        </mxCell>
        <mxCell id="gQPW2DBEitB-CbbnBLBv-1" value="+ programs(): Program*" style="text;strokeColor=none;fillColor=none;align=left;verticalAlign=top;spacingLeft=4;spacingRight=4;overflow=hidden;rotatable=0;points=[[0,0.5],[1,0.5]];portConstraint=eastwest;" parent="NgNixX1Y_Vf6koQVWEjy-53" vertex="1">
          <mxGeometry y="86" width="160" height="26" as="geometry" />
        </mxCell>
        <mxCell id="NgNixX1Y_Vf6koQVWEjy-58" value="programs" style="endArrow=block;endFill=1;html=1;edgeStyle=orthogonalEdgeStyle;align=left;verticalAlign=top;exitX=1;exitY=0.25;exitDx=0;exitDy=0;entryX=0;entryY=0.25;entryDx=0;entryDy=0;" parent="NgNixX1Y_Vf6koQVWEjy-1" source="NgNixX1Y_Vf6koQVWEjy-53" target="NgNixX1Y_Vf6koQVWEjy-47" edge="1">
          <mxGeometry x="-1" relative="1" as="geometry">
            <mxPoint x="200" y="660" as="sourcePoint" />
            <mxPoint x="360" y="660" as="targetPoint" />
          </mxGeometry>
        </mxCell>
        <mxCell id="NgNixX1Y_Vf6koQVWEjy-59" value="1" style="edgeLabel;resizable=0;html=1;align=left;verticalAlign=bottom;" parent="NgNixX1Y_Vf6koQVWEjy-58" connectable="0" vertex="1">
          <mxGeometry x="-1" relative="1" as="geometry" />
        </mxCell>
        <mxCell id="NgNixX1Y_Vf6koQVWEjy-60" value="logger" style="endArrow=block;endFill=1;html=1;edgeStyle=orthogonalEdgeStyle;align=left;verticalAlign=top;exitX=0.5;exitY=0;exitDx=0;exitDy=0;entryX=0;entryY=0.5;entryDx=0;entryDy=0;" parent="NgNixX1Y_Vf6koQVWEjy-1" source="NgNixX1Y_Vf6koQVWEjy-53" target="NgNixX1Y_Vf6koQVWEjy-21" edge="1">
          <mxGeometry x="-0.8009" relative="1" as="geometry">
            <mxPoint x="210" y="565" as="sourcePoint" />
            <mxPoint x="289" y="536" as="targetPoint" />
            <Array as="points">
              <mxPoint x="110" y="555" />
              <mxPoint x="110" y="510" />
              <mxPoint x="230" y="510" />
              <mxPoint x="230" y="313" />
            </Array>
            <mxPoint as="offset" />
          </mxGeometry>
        </mxCell>
        <mxCell id="NgNixX1Y_Vf6koQVWEjy-61" value="1" style="edgeLabel;resizable=0;html=1;align=left;verticalAlign=bottom;" parent="NgNixX1Y_Vf6koQVWEjy-60" connectable="0" vertex="1">
          <mxGeometry x="-1" relative="1" as="geometry" />
        </mxCell>
        <mxCell id="NgNixX1Y_Vf6koQVWEjy-64" value="logger" style="endArrow=block;endFill=1;html=1;edgeStyle=orthogonalEdgeStyle;align=left;verticalAlign=top;exitX=1;exitY=0.5;exitDx=0;exitDy=0;entryX=0;entryY=0.5;entryDx=0;entryDy=0;" parent="NgNixX1Y_Vf6koQVWEjy-1" source="NgNixX1Y_Vf6koQVWEjy-20" target="NgNixX1Y_Vf6koQVWEjy-11" edge="1">
          <mxGeometry x="-0.75" y="-10" relative="1" as="geometry">
            <mxPoint x="270" y="640" as="sourcePoint" />
            <mxPoint x="430" y="640" as="targetPoint" />
            <mxPoint as="offset" />
          </mxGeometry>
        </mxCell>
        <mxCell id="NgNixX1Y_Vf6koQVWEjy-65" value="1" style="edgeLabel;resizable=0;html=1;align=left;verticalAlign=bottom;" parent="NgNixX1Y_Vf6koQVWEjy-64" connectable="0" vertex="1">
          <mxGeometry x="-1" relative="1" as="geometry" />
        </mxCell>
        <mxCell id="NgNixX1Y_Vf6koQVWEjy-66" value="&lt;div&gt;logger&lt;/div&gt;" style="endArrow=block;endFill=1;html=1;edgeStyle=orthogonalEdgeStyle;align=left;verticalAlign=top;exitX=1;exitY=0.5;exitDx=0;exitDy=0;entryX=-0.025;entryY=0.231;entryDx=0;entryDy=0;entryPerimeter=0;" parent="NgNixX1Y_Vf6koQVWEjy-1" source="NgNixX1Y_Vf6koQVWEjy-28" target="NgNixX1Y_Vf6koQVWEjy-19" edge="1">
          <mxGeometry x="-1" relative="1" as="geometry">
            <mxPoint x="290" y="660" as="sourcePoint" />
            <mxPoint x="450" y="660" as="targetPoint" />
          </mxGeometry>
        </mxCell>
        <mxCell id="NgNixX1Y_Vf6koQVWEjy-67" value="1" style="edgeLabel;resizable=0;html=1;align=left;verticalAlign=bottom;" parent="NgNixX1Y_Vf6koQVWEjy-66" connectable="0" vertex="1">
          <mxGeometry x="-1" relative="1" as="geometry" />
        </mxCell>
        <mxCell id="NgNixX1Y_Vf6koQVWEjy-68" value="logger" style="endArrow=block;endFill=1;html=1;edgeStyle=orthogonalEdgeStyle;align=left;verticalAlign=top;exitX=0.5;exitY=0;exitDx=0;exitDy=0;entryX=0.013;entryY=-0.115;entryDx=0;entryDy=0;entryPerimeter=0;" parent="NgNixX1Y_Vf6koQVWEjy-1" source="NgNixX1Y_Vf6koQVWEjy-37" target="NgNixX1Y_Vf6koQVWEjy-21" edge="1">
          <mxGeometry x="-0.6263" y="15" relative="1" as="geometry">
            <mxPoint x="180" y="670" as="sourcePoint" />
            <mxPoint x="340" y="670" as="targetPoint" />
            <mxPoint x="-15" y="15" as="offset" />
          </mxGeometry>
        </mxCell>
        <mxCell id="NgNixX1Y_Vf6koQVWEjy-69" value="1" style="edgeLabel;resizable=0;html=1;align=left;verticalAlign=bottom;" parent="NgNixX1Y_Vf6koQVWEjy-68" connectable="0" vertex="1">
          <mxGeometry x="-1" relative="1" as="geometry" />
        </mxCell>
        <mxCell id="NgNixX1Y_Vf6koQVWEjy-71" value="SystemMonitorAo" style="swimlane;fontStyle=1;align=center;verticalAlign=top;childLayout=stackLayout;horizontal=1;startSize=26;horizontalStack=0;resizeParent=1;resizeParentMax=0;resizeLast=0;collapsible=1;marginBottom=0;" parent="NgNixX1Y_Vf6koQVWEjy-1" vertex="1">
          <mxGeometry x="600" y="509" width="160" height="86" as="geometry" />
        </mxCell>
        <mxCell id="NgNixX1Y_Vf6koQVWEjy-73" value="" style="line;strokeWidth=1;fillColor=none;align=left;verticalAlign=middle;spacingTop=-1;spacingLeft=3;spacingRight=3;rotatable=0;labelPosition=right;points=[];portConstraint=eastwest;" parent="NgNixX1Y_Vf6koQVWEjy-71" vertex="1">
          <mxGeometry y="26" width="160" height="8" as="geometry" />
        </mxCell>
        <mxCell id="NgNixX1Y_Vf6koQVWEjy-74" value="+ load(): void" style="text;strokeColor=none;fillColor=none;align=left;verticalAlign=top;spacingLeft=4;spacingRight=4;overflow=hidden;rotatable=0;points=[[0,0.5],[1,0.5]];portConstraint=eastwest;" parent="NgNixX1Y_Vf6koQVWEjy-71" vertex="1">
          <mxGeometry y="34" width="160" height="26" as="geometry" />
        </mxCell>
        <mxCell id="gQPW2DBEitB-CbbnBLBv-2" value="+ run(): void" style="text;strokeColor=none;fillColor=none;align=left;verticalAlign=top;spacingLeft=4;spacingRight=4;overflow=hidden;rotatable=0;points=[[0,0.5],[1,0.5]];portConstraint=eastwest;" parent="NgNixX1Y_Vf6koQVWEjy-71" vertex="1">
          <mxGeometry y="60" width="160" height="26" as="geometry" />
        </mxCell>
        <mxCell id="NgNixX1Y_Vf6koQVWEjy-75" value="logger" style="endArrow=block;endFill=1;html=1;edgeStyle=orthogonalEdgeStyle;align=left;verticalAlign=top;exitX=0;exitY=0.25;exitDx=0;exitDy=0;entryX=1;entryY=0.5;entryDx=0;entryDy=0;" parent="NgNixX1Y_Vf6koQVWEjy-1" source="NgNixX1Y_Vf6koQVWEjy-71" target="NgNixX1Y_Vf6koQVWEjy-19" edge="1">
          <mxGeometry x="-1" relative="1" as="geometry">
            <mxPoint x="420" y="720" as="sourcePoint" />
            <mxPoint x="580" y="720" as="targetPoint" />
            <Array as="points">
              <mxPoint x="560" y="524" />
              <mxPoint x="560" y="287" />
            </Array>
          </mxGeometry>
        </mxCell>
        <mxCell id="NgNixX1Y_Vf6koQVWEjy-76" value="1" style="edgeLabel;resizable=0;html=1;align=left;verticalAlign=bottom;" parent="NgNixX1Y_Vf6koQVWEjy-75" connectable="0" vertex="1">
          <mxGeometry x="-1" relative="1" as="geometry" />
        </mxCell>
        <mxCell id="NgNixX1Y_Vf6koQVWEjy-77" value="Serial_" style="swimlane;fontStyle=1;align=center;verticalAlign=top;childLayout=stackLayout;horizontal=1;startSize=26;horizontalStack=0;resizeParent=1;resizeParentMax=0;resizeLast=0;collapsible=1;marginBottom=0;fillColor=#fff2cc;strokeColor=#d6b656;" parent="NgNixX1Y_Vf6koQVWEjy-1" vertex="1">
          <mxGeometry x="310" y="470" width="160" height="112" as="geometry" />
        </mxCell>
        <mxCell id="NgNixX1Y_Vf6koQVWEjy-79" value="" style="line;strokeWidth=1;fillColor=#fff2cc;align=left;verticalAlign=middle;spacingTop=-1;spacingLeft=3;spacingRight=3;rotatable=0;labelPosition=right;points=[];portConstraint=eastwest;strokeColor=#d6b656;" parent="NgNixX1Y_Vf6koQVWEjy-77" vertex="1">
          <mxGeometry y="26" width="160" height="8" as="geometry" />
        </mxCell>
        <mxCell id="NgNixX1Y_Vf6koQVWEjy-80" value="+ read(): char" style="text;strokeColor=#d6b656;fillColor=#fff2cc;align=left;verticalAlign=top;spacingLeft=4;spacingRight=4;overflow=hidden;rotatable=0;points=[[0,0.5],[1,0.5]];portConstraint=eastwest;" parent="NgNixX1Y_Vf6koQVWEjy-77" vertex="1">
          <mxGeometry y="34" width="160" height="26" as="geometry" />
        </mxCell>
        <mxCell id="NgNixX1Y_Vf6koQVWEjy-81" value="+ print(const char*): void" style="text;strokeColor=#d6b656;fillColor=#fff2cc;align=left;verticalAlign=top;spacingLeft=4;spacingRight=4;overflow=hidden;rotatable=0;points=[[0,0.5],[1,0.5]];portConstraint=eastwest;" parent="NgNixX1Y_Vf6koQVWEjy-77" vertex="1">
          <mxGeometry y="60" width="160" height="26" as="geometry" />
        </mxCell>
        <mxCell id="NgNixX1Y_Vf6koQVWEjy-82" value="+ println(const char*): void" style="text;strokeColor=#d6b656;fillColor=#fff2cc;align=left;verticalAlign=top;spacingLeft=4;spacingRight=4;overflow=hidden;rotatable=0;points=[[0,0.5],[1,0.5]];portConstraint=eastwest;" parent="NgNixX1Y_Vf6koQVWEjy-77" vertex="1">
          <mxGeometry y="86" width="160" height="26" as="geometry" />
        </mxCell>
        <mxCell id="NgNixX1Y_Vf6koQVWEjy-83" value="TerminalAo" style="swimlane;fontStyle=1;align=center;verticalAlign=top;childLayout=stackLayout;horizontal=1;startSize=26;horizontalStack=0;resizeParent=1;resizeParentMax=0;resizeLast=0;collapsible=1;marginBottom=0;" parent="NgNixX1Y_Vf6koQVWEjy-1" vertex="1">
          <mxGeometry x="610" y="702" width="160" height="86" as="geometry" />
        </mxCell>
        <mxCell id="NgNixX1Y_Vf6koQVWEjy-85" value="" style="line;strokeWidth=1;fillColor=none;align=left;verticalAlign=middle;spacingTop=-1;spacingLeft=3;spacingRight=3;rotatable=0;labelPosition=right;points=[];portConstraint=eastwest;" parent="NgNixX1Y_Vf6koQVWEjy-83" vertex="1">
          <mxGeometry y="26" width="160" height="8" as="geometry" />
        </mxCell>
        <mxCell id="NgNixX1Y_Vf6koQVWEjy-86" value="+ load(): void" style="text;strokeColor=none;fillColor=none;align=left;verticalAlign=top;spacingLeft=4;spacingRight=4;overflow=hidden;rotatable=0;points=[[0,0.5],[1,0.5]];portConstraint=eastwest;" parent="NgNixX1Y_Vf6koQVWEjy-83" vertex="1">
          <mxGeometry y="34" width="160" height="26" as="geometry" />
        </mxCell>
        <mxCell id="gQPW2DBEitB-CbbnBLBv-3" value="+ run(): void" style="text;strokeColor=none;fillColor=none;align=left;verticalAlign=top;spacingLeft=4;spacingRight=4;overflow=hidden;rotatable=0;points=[[0,0.5],[1,0.5]];portConstraint=eastwest;" parent="NgNixX1Y_Vf6koQVWEjy-83" vertex="1">
          <mxGeometry y="60" width="160" height="26" as="geometry" />
        </mxCell>
        <mxCell id="NgNixX1Y_Vf6koQVWEjy-88" value="logger" style="endArrow=block;endFill=1;html=1;edgeStyle=orthogonalEdgeStyle;align=left;verticalAlign=top;exitX=0.5;exitY=0;exitDx=0;exitDy=0;entryX=1.006;entryY=0.269;entryDx=0;entryDy=0;entryPerimeter=0;" parent="NgNixX1Y_Vf6koQVWEjy-1" source="NgNixX1Y_Vf6koQVWEjy-83" target="NgNixX1Y_Vf6koQVWEjy-21" edge="1">
          <mxGeometry x="-0.9206" y="-10" relative="1" as="geometry">
            <mxPoint x="550" y="770" as="sourcePoint" />
            <mxPoint x="710" y="770" as="targetPoint" />
            <Array as="points">
              <mxPoint x="690" y="610" />
              <mxPoint x="550" y="610" />
              <mxPoint x="550" y="307" />
            </Array>
            <mxPoint as="offset" />
          </mxGeometry>
        </mxCell>
        <mxCell id="NgNixX1Y_Vf6koQVWEjy-89" value="1" style="edgeLabel;resizable=0;html=1;align=left;verticalAlign=bottom;" parent="NgNixX1Y_Vf6koQVWEjy-88" connectable="0" vertex="1">
          <mxGeometry x="-1" relative="1" as="geometry" />
        </mxCell>
        <mxCell id="NgNixX1Y_Vf6koQVWEjy-90" value="programs" style="endArrow=block;endFill=1;html=1;edgeStyle=orthogonalEdgeStyle;align=left;verticalAlign=top;exitX=0;exitY=0.5;exitDx=0;exitDy=0;entryX=1;entryY=0.5;entryDx=0;entryDy=0;" parent="NgNixX1Y_Vf6koQVWEjy-1" source="NgNixX1Y_Vf6koQVWEjy-86" target="NgNixX1Y_Vf6koQVWEjy-50" edge="1">
          <mxGeometry x="-0.2718" y="-24" relative="1" as="geometry">
            <mxPoint x="530" y="800" as="sourcePoint" />
            <mxPoint x="690" y="800" as="targetPoint" />
            <mxPoint x="2" y="-9" as="offset" />
          </mxGeometry>
        </mxCell>
        <mxCell id="NgNixX1Y_Vf6koQVWEjy-91" value="1" style="edgeLabel;resizable=0;html=1;align=left;verticalAlign=bottom;" parent="NgNixX1Y_Vf6koQVWEjy-90" connectable="0" vertex="1">
          <mxGeometry x="-1" relative="1" as="geometry" />
        </mxCell>
        <mxCell id="NgNixX1Y_Vf6koQVWEjy-92" value="Keyboard_" style="swimlane;fontStyle=1;align=center;verticalAlign=top;childLayout=stackLayout;horizontal=1;startSize=26;horizontalStack=0;resizeParent=1;resizeParentMax=0;resizeLast=0;collapsible=1;marginBottom=0;fillColor=#fff2cc;strokeColor=#d6b656;" parent="NgNixX1Y_Vf6koQVWEjy-1" vertex="1">
          <mxGeometry x="310" y="600" width="160" height="86" as="geometry" />
        </mxCell>
        <mxCell id="NgNixX1Y_Vf6koQVWEjy-93" value="+ field: type" style="text;strokeColor=#d6b656;fillColor=#fff2cc;align=left;verticalAlign=top;spacingLeft=4;spacingRight=4;overflow=hidden;rotatable=0;points=[[0,0.5],[1,0.5]];portConstraint=eastwest;" parent="NgNixX1Y_Vf6koQVWEjy-92" vertex="1">
          <mxGeometry y="26" width="160" height="26" as="geometry" />
        </mxCell>
        <mxCell id="NgNixX1Y_Vf6koQVWEjy-94" value="" style="line;strokeWidth=1;fillColor=#fff2cc;align=left;verticalAlign=middle;spacingTop=-1;spacingLeft=3;spacingRight=3;rotatable=0;labelPosition=right;points=[];portConstraint=eastwest;strokeColor=#d6b656;" parent="NgNixX1Y_Vf6koQVWEjy-92" vertex="1">
          <mxGeometry y="52" width="160" height="8" as="geometry" />
        </mxCell>
        <mxCell id="NgNixX1Y_Vf6koQVWEjy-95" value="+ method(type): type" style="text;strokeColor=#d6b656;fillColor=#fff2cc;align=left;verticalAlign=top;spacingLeft=4;spacingRight=4;overflow=hidden;rotatable=0;points=[[0,0.5],[1,0.5]];portConstraint=eastwest;" parent="NgNixX1Y_Vf6koQVWEjy-92" vertex="1">
          <mxGeometry y="60" width="160" height="26" as="geometry" />
        </mxCell>
        <mxCell id="NgNixX1Y_Vf6koQVWEjy-96" value="&lt;div&gt;usb&lt;/div&gt;" style="endArrow=block;endFill=1;html=1;edgeStyle=orthogonalEdgeStyle;align=left;verticalAlign=top;exitX=0;exitY=0;exitDx=0;exitDy=0;entryX=1;entryY=0.5;entryDx=0;entryDy=0;" parent="NgNixX1Y_Vf6koQVWEjy-1" source="NgNixX1Y_Vf6koQVWEjy-83" target="NgNixX1Y_Vf6koQVWEjy-93" edge="1">
          <mxGeometry x="-0.5652" y="-27" relative="1" as="geometry">
            <mxPoint x="520" y="610" as="sourcePoint" />
            <mxPoint x="680" y="610" as="targetPoint" />
            <mxPoint as="offset" />
          </mxGeometry>
        </mxCell>
        <mxCell id="NgNixX1Y_Vf6koQVWEjy-97" value="1" style="edgeLabel;resizable=0;html=1;align=left;verticalAlign=bottom;" parent="NgNixX1Y_Vf6koQVWEjy-96" connectable="0" vertex="1">
          <mxGeometry x="-1" relative="1" as="geometry" />
        </mxCell>
        <mxCell id="NgNixX1Y_Vf6koQVWEjy-98" value="ble" style="endArrow=block;endFill=1;html=1;edgeStyle=orthogonalEdgeStyle;align=left;verticalAlign=top;exitX=0;exitY=0.25;exitDx=0;exitDy=0;entryX=0;entryY=0.5;entryDx=0;entryDy=0;" parent="NgNixX1Y_Vf6koQVWEjy-1" source="NgNixX1Y_Vf6koQVWEjy-83" target="NgNixX1Y_Vf6koQVWEjy-46" edge="1">
          <mxGeometry x="-1" relative="1" as="geometry">
            <mxPoint x="470" y="850" as="sourcePoint" />
            <mxPoint x="10" y="490" as="targetPoint" />
            <Array as="points">
              <mxPoint x="10" y="717" />
              <mxPoint x="10" y="439" />
            </Array>
          </mxGeometry>
        </mxCell>
        <mxCell id="NgNixX1Y_Vf6koQVWEjy-99" value="1" style="edgeLabel;resizable=0;html=1;align=left;verticalAlign=bottom;" parent="NgNixX1Y_Vf6koQVWEjy-98" connectable="0" vertex="1">
          <mxGeometry x="-1" relative="1" as="geometry" />
        </mxCell>
        <mxCell id="NgNixX1Y_Vf6koQVWEjy-100" value="serial" style="endArrow=block;endFill=1;html=1;edgeStyle=orthogonalEdgeStyle;align=left;verticalAlign=top;exitX=0.25;exitY=0;exitDx=0;exitDy=0;entryX=1;entryY=-0.077;entryDx=0;entryDy=0;entryPerimeter=0;" parent="NgNixX1Y_Vf6koQVWEjy-1" source="NgNixX1Y_Vf6koQVWEjy-83" target="NgNixX1Y_Vf6koQVWEjy-81" edge="1">
          <mxGeometry x="-0.625" y="-10" relative="1" as="geometry">
            <mxPoint x="630" y="597.5" as="sourcePoint" />
            <mxPoint x="790" y="597.5" as="targetPoint" />
            <Array as="points">
              <mxPoint x="650" y="620" />
              <mxPoint x="480" y="620" />
              <mxPoint x="480" y="528" />
            </Array>
            <mxPoint as="offset" />
          </mxGeometry>
        </mxCell>
        <mxCell id="NgNixX1Y_Vf6koQVWEjy-101" value="1" style="edgeLabel;resizable=0;html=1;align=left;verticalAlign=bottom;" parent="NgNixX1Y_Vf6koQVWEjy-100" connectable="0" vertex="1">
          <mxGeometry x="-1" relative="1" as="geometry" />
        </mxCell>
        <mxCell id="NgNixX1Y_Vf6koQVWEjy-102" value="Use" style="endArrow=open;endSize=12;dashed=1;html=1;exitX=0.75;exitY=0;exitDx=0;exitDy=0;entryX=1;entryY=1;entryDx=0;entryDy=0;" parent="NgNixX1Y_Vf6koQVWEjy-1" source="NgNixX1Y_Vf6koQVWEjy-83" target="NgNixX1Y_Vf6koQVWEjy-5" edge="1">
          <mxGeometry x="-0.2743" y="4" width="160" relative="1" as="geometry">
            <mxPoint x="670" y="780" as="sourcePoint" />
            <mxPoint x="790" y="800" as="targetPoint" />
            <Array as="points">
              <mxPoint x="810" y="490" />
            </Array>
            <mxPoint y="1" as="offset" />
          </mxGeometry>
        </mxCell>
        <mxCell id="6jZTBXhIwiYemU2592zj-0" value="&lt;p style=&quot;margin: 0px ; margin-top: 4px ; text-align: center ; text-decoration: underline&quot;&gt;&lt;b&gt;SystemHw: struct&lt;br&gt;&lt;/b&gt;&lt;/p&gt;&lt;hr&gt;&lt;p style=&quot;margin: 0px ; margin-left: 8px&quot;&gt;s freeMemory(): int&lt;br&gt;s warnLedOn(): void&lt;br&gt;s warnLedOff(): void&lt;/p&gt;&lt;p style=&quot;margin: 0px ; margin-left: 8px&quot;&gt;&lt;br&gt;&lt;/p&gt;" style="verticalAlign=top;align=left;overflow=fill;fontSize=12;fontFamily=Helvetica;html=1;fillColor=#ffe6cc;strokeColor=#d79b00;" parent="NgNixX1Y_Vf6koQVWEjy-1" vertex="1">
          <mxGeometry x="580" y="400" width="180" height="79" as="geometry" />
        </mxCell>
        <mxCell id="6jZTBXhIwiYemU2592zj-1" value="Use" style="endArrow=open;endSize=12;dashed=1;html=1;exitX=1;exitY=0;exitDx=0;exitDy=0;entryX=1;entryY=0.75;entryDx=0;entryDy=0;" parent="NgNixX1Y_Vf6koQVWEjy-1" source="NgNixX1Y_Vf6koQVWEjy-83" target="6jZTBXhIwiYemU2592zj-0" edge="1">
          <mxGeometry width="160" relative="1" as="geometry">
            <mxPoint x="763.04" y="653.98" as="sourcePoint" />
            <mxPoint x="745" y="370" as="targetPoint" />
            <Array as="points">
              <mxPoint x="810" y="520" />
            </Array>
          </mxGeometry>
        </mxCell>
        <mxCell id="6jZTBXhIwiYemU2592zj-2" value="Use" style="endArrow=open;endSize=12;dashed=1;html=1;exitX=0.75;exitY=0;exitDx=0;exitDy=0;entryX=0.75;entryY=1;entryDx=0;entryDy=0;" parent="NgNixX1Y_Vf6koQVWEjy-1" source="NgNixX1Y_Vf6koQVWEjy-71" target="6jZTBXhIwiYemU2592zj-0" edge="1">
          <mxGeometry x="-0.1964" y="-14" width="160" relative="1" as="geometry">
            <mxPoint x="780" y="652" as="sourcePoint" />
            <mxPoint x="770" y="469.25" as="targetPoint" />
            <Array as="points">
              <mxPoint x="740" y="500" />
            </Array>
            <mxPoint x="1" y="1" as="offset" />
          </mxGeometry>
        </mxCell>
      </root>
    </mxGraphModel>
  </diagram>
  <diagram id="p68beTlAC04PYR8i4gAY" name="Queues">
    <mxGraphModel dx="704" dy="695" grid="1" gridSize="10" guides="1" tooltips="1" connect="1" arrows="1" fold="1" page="1" pageScale="1" pageWidth="850" pageHeight="1100" math="0" shadow="0">
      <root>
        <mxCell id="0" />
        <mxCell id="1" parent="0" />
        <mxCell id="FPd_QH5sB4SjslSBsmsc-19" style="edgeStyle=orthogonalEdgeStyle;curved=1;rounded=0;orthogonalLoop=1;jettySize=auto;html=1;exitX=1;exitY=0.5;exitDx=0;exitDy=0;entryX=0.5;entryY=0;entryDx=0;entryDy=0;" parent="1" source="FPd_QH5sB4SjslSBsmsc-1" target="FPd_QH5sB4SjslSBsmsc-18" edge="1">
          <mxGeometry relative="1" as="geometry" />
        </mxCell>
        <mxCell id="FPd_QH5sB4SjslSBsmsc-25" style="edgeStyle=orthogonalEdgeStyle;curved=1;rounded=0;orthogonalLoop=1;jettySize=auto;html=1;exitX=0.75;exitY=1;exitDx=0;exitDy=0;entryX=0.5;entryY=0;entryDx=0;entryDy=0;elbow=vertical;" parent="1" source="FPd_QH5sB4SjslSBsmsc-1" target="FPd_QH5sB4SjslSBsmsc-22" edge="1">
          <mxGeometry relative="1" as="geometry" />
        </mxCell>
        <mxCell id="FPd_QH5sB4SjslSBsmsc-1" value="KeypadAo" style="swimlane;fontStyle=1;align=center;verticalAlign=top;childLayout=stackLayout;horizontal=1;startSize=26;horizontalStack=0;resizeParent=1;resizeParentMax=0;resizeLast=0;collapsible=1;marginBottom=0;" parent="1" vertex="1">
          <mxGeometry x="40" y="40" width="160" height="86" as="geometry" />
        </mxCell>
        <mxCell id="FPd_QH5sB4SjslSBsmsc-2" value="" style="line;strokeWidth=1;fillColor=none;align=left;verticalAlign=middle;spacingTop=-1;spacingLeft=3;spacingRight=3;rotatable=0;labelPosition=right;points=[];portConstraint=eastwest;" parent="FPd_QH5sB4SjslSBsmsc-1" vertex="1">
          <mxGeometry y="26" width="160" height="8" as="geometry" />
        </mxCell>
        <mxCell id="FPd_QH5sB4SjslSBsmsc-3" value="+ load(): void" style="text;strokeColor=none;fillColor=none;align=left;verticalAlign=top;spacingLeft=4;spacingRight=4;overflow=hidden;rotatable=0;points=[[0,0.5],[1,0.5]];portConstraint=eastwest;" parent="FPd_QH5sB4SjslSBsmsc-1" vertex="1">
          <mxGeometry y="34" width="160" height="26" as="geometry" />
        </mxCell>
        <mxCell id="FPd_QH5sB4SjslSBsmsc-4" value="+ run(): void" style="text;strokeColor=none;fillColor=none;align=left;verticalAlign=top;spacingLeft=4;spacingRight=4;overflow=hidden;rotatable=0;points=[[0,0.5],[1,0.5]];portConstraint=eastwest;" parent="FPd_QH5sB4SjslSBsmsc-1" vertex="1">
          <mxGeometry y="60" width="160" height="26" as="geometry" />
        </mxCell>
        <mxCell id="FPd_QH5sB4SjslSBsmsc-5" value="HidAo" style="swimlane;fontStyle=1;align=center;verticalAlign=top;childLayout=stackLayout;horizontal=1;startSize=26;horizontalStack=0;resizeParent=1;resizeParentMax=0;resizeLast=0;collapsible=1;marginBottom=0;" parent="1" vertex="1">
          <mxGeometry x="520" y="40" width="160" height="86" as="geometry" />
        </mxCell>
        <mxCell id="FPd_QH5sB4SjslSBsmsc-6" value="" style="line;strokeWidth=1;fillColor=none;align=left;verticalAlign=middle;spacingTop=-1;spacingLeft=3;spacingRight=3;rotatable=0;labelPosition=right;points=[];portConstraint=eastwest;" parent="FPd_QH5sB4SjslSBsmsc-5" vertex="1">
          <mxGeometry y="26" width="160" height="8" as="geometry" />
        </mxCell>
        <mxCell id="FPd_QH5sB4SjslSBsmsc-7" value="+ load(): void" style="text;strokeColor=none;fillColor=none;align=left;verticalAlign=top;spacingLeft=4;spacingRight=4;overflow=hidden;rotatable=0;points=[[0,0.5],[1,0.5]];portConstraint=eastwest;" parent="FPd_QH5sB4SjslSBsmsc-5" vertex="1">
          <mxGeometry y="34" width="160" height="26" as="geometry" />
        </mxCell>
        <mxCell id="FPd_QH5sB4SjslSBsmsc-8" value="+ run(): void" style="text;strokeColor=none;fillColor=none;align=left;verticalAlign=top;spacingLeft=4;spacingRight=4;overflow=hidden;rotatable=0;points=[[0,0.5],[1,0.5]];portConstraint=eastwest;" parent="FPd_QH5sB4SjslSBsmsc-5" vertex="1">
          <mxGeometry y="60" width="160" height="26" as="geometry" />
        </mxCell>
        <mxCell id="FPd_QH5sB4SjslSBsmsc-10" value="SystemMonitorAo" style="swimlane;fontStyle=1;align=center;verticalAlign=top;childLayout=stackLayout;horizontal=1;startSize=26;horizontalStack=0;resizeParent=1;resizeParentMax=0;resizeLast=0;collapsible=1;marginBottom=0;" parent="1" vertex="1">
          <mxGeometry x="520" y="200" width="160" height="86" as="geometry" />
        </mxCell>
        <mxCell id="FPd_QH5sB4SjslSBsmsc-11" value="" style="line;strokeWidth=1;fillColor=none;align=left;verticalAlign=middle;spacingTop=-1;spacingLeft=3;spacingRight=3;rotatable=0;labelPosition=right;points=[];portConstraint=eastwest;" parent="FPd_QH5sB4SjslSBsmsc-10" vertex="1">
          <mxGeometry y="26" width="160" height="8" as="geometry" />
        </mxCell>
        <mxCell id="FPd_QH5sB4SjslSBsmsc-12" value="+ load(): void" style="text;strokeColor=none;fillColor=none;align=left;verticalAlign=top;spacingLeft=4;spacingRight=4;overflow=hidden;rotatable=0;points=[[0,0.5],[1,0.5]];portConstraint=eastwest;" parent="FPd_QH5sB4SjslSBsmsc-10" vertex="1">
          <mxGeometry y="34" width="160" height="26" as="geometry" />
        </mxCell>
        <mxCell id="FPd_QH5sB4SjslSBsmsc-13" value="+ run(): void" style="text;strokeColor=none;fillColor=none;align=left;verticalAlign=top;spacingLeft=4;spacingRight=4;overflow=hidden;rotatable=0;points=[[0,0.5],[1,0.5]];portConstraint=eastwest;" parent="FPd_QH5sB4SjslSBsmsc-10" vertex="1">
          <mxGeometry y="60" width="160" height="26" as="geometry" />
        </mxCell>
        <mxCell id="FPd_QH5sB4SjslSBsmsc-23" style="edgeStyle=orthogonalEdgeStyle;curved=1;rounded=0;orthogonalLoop=1;jettySize=auto;html=1;exitX=0.25;exitY=0;exitDx=0;exitDy=0;entryX=0.5;entryY=1;entryDx=0;entryDy=0;elbow=vertical;" parent="1" source="FPd_QH5sB4SjslSBsmsc-14" target="FPd_QH5sB4SjslSBsmsc-21" edge="1">
          <mxGeometry relative="1" as="geometry" />
        </mxCell>
        <mxCell id="FPd_QH5sB4SjslSBsmsc-14" value="TerminalAo" style="swimlane;fontStyle=1;align=center;verticalAlign=top;childLayout=stackLayout;horizontal=1;startSize=26;horizontalStack=0;resizeParent=1;resizeParentMax=0;resizeLast=0;collapsible=1;marginBottom=0;" parent="1" vertex="1">
          <mxGeometry x="40" y="280" width="160" height="86" as="geometry" />
        </mxCell>
        <mxCell id="FPd_QH5sB4SjslSBsmsc-15" value="" style="line;strokeWidth=1;fillColor=none;align=left;verticalAlign=middle;spacingTop=-1;spacingLeft=3;spacingRight=3;rotatable=0;labelPosition=right;points=[];portConstraint=eastwest;" parent="FPd_QH5sB4SjslSBsmsc-14" vertex="1">
          <mxGeometry y="26" width="160" height="8" as="geometry" />
        </mxCell>
        <mxCell id="FPd_QH5sB4SjslSBsmsc-16" value="+ load(): void" style="text;strokeColor=none;fillColor=none;align=left;verticalAlign=top;spacingLeft=4;spacingRight=4;overflow=hidden;rotatable=0;points=[[0,0.5],[1,0.5]];portConstraint=eastwest;" parent="FPd_QH5sB4SjslSBsmsc-14" vertex="1">
          <mxGeometry y="34" width="160" height="26" as="geometry" />
        </mxCell>
        <mxCell id="FPd_QH5sB4SjslSBsmsc-17" value="+ run(): void" style="text;strokeColor=none;fillColor=none;align=left;verticalAlign=top;spacingLeft=4;spacingRight=4;overflow=hidden;rotatable=0;points=[[0,0.5],[1,0.5]];portConstraint=eastwest;" parent="FPd_QH5sB4SjslSBsmsc-14" vertex="1">
          <mxGeometry y="60" width="160" height="26" as="geometry" />
        </mxCell>
        <mxCell id="FPd_QH5sB4SjslSBsmsc-20" style="edgeStyle=orthogonalEdgeStyle;curved=1;rounded=0;orthogonalLoop=1;jettySize=auto;html=1;exitX=0.5;exitY=1;exitDx=0;exitDy=0;entryX=0;entryY=0.5;entryDx=0;entryDy=0;" parent="1" source="FPd_QH5sB4SjslSBsmsc-18" target="FPd_QH5sB4SjslSBsmsc-7" edge="1">
          <mxGeometry relative="1" as="geometry" />
        </mxCell>
        <mxCell id="FPd_QH5sB4SjslSBsmsc-18" value="Start program queue" style="shape=partialRectangle;whiteSpace=wrap;html=1;left=0;right=0;fillColor=none;" parent="1" vertex="1">
          <mxGeometry x="280" y="80" width="120" height="20" as="geometry" />
        </mxCell>
        <mxCell id="FPd_QH5sB4SjslSBsmsc-24" style="edgeStyle=orthogonalEdgeStyle;curved=1;rounded=0;orthogonalLoop=1;jettySize=auto;html=1;exitX=0.25;exitY=0;exitDx=0;exitDy=0;entryX=0.25;entryY=1;entryDx=0;entryDy=0;elbow=vertical;" parent="1" source="FPd_QH5sB4SjslSBsmsc-21" target="FPd_QH5sB4SjslSBsmsc-1" edge="1">
          <mxGeometry relative="1" as="geometry" />
        </mxCell>
        <mxCell id="FPd_QH5sB4SjslSBsmsc-21" value="Set PIN queue" style="shape=partialRectangle;whiteSpace=wrap;html=1;left=0;right=0;fillColor=none;" parent="1" vertex="1">
          <mxGeometry x="40" y="200" width="90" height="20" as="geometry" />
        </mxCell>
        <mxCell id="FPd_QH5sB4SjslSBsmsc-26" style="edgeStyle=orthogonalEdgeStyle;curved=1;rounded=0;orthogonalLoop=1;jettySize=auto;html=1;exitX=0.5;exitY=1;exitDx=0;exitDy=0;entryX=0.75;entryY=0;entryDx=0;entryDy=0;elbow=vertical;" parent="1" source="FPd_QH5sB4SjslSBsmsc-22" target="FPd_QH5sB4SjslSBsmsc-14" edge="1">
          <mxGeometry relative="1" as="geometry" />
        </mxCell>
        <mxCell id="FPd_QH5sB4SjslSBsmsc-22" value="PIN already defined queue" style="shape=partialRectangle;whiteSpace=wrap;html=1;left=0;right=0;fillColor=none;" parent="1" vertex="1">
          <mxGeometry x="138" y="200" width="150" height="20" as="geometry" />
        </mxCell>
        <mxCell id="FPd_QH5sB4SjslSBsmsc-30" style="edgeStyle=orthogonalEdgeStyle;curved=1;rounded=0;orthogonalLoop=1;jettySize=auto;html=1;exitX=0.5;exitY=1;exitDx=0;exitDy=0;entryX=0;entryY=0.5;entryDx=0;entryDy=0;elbow=vertical;" parent="1" source="FPd_QH5sB4SjslSBsmsc-27" target="FPd_QH5sB4SjslSBsmsc-12" edge="1">
          <mxGeometry relative="1" as="geometry" />
        </mxCell>
        <mxCell id="FPd_QH5sB4SjslSBsmsc-27" value="Wrong PIN queue" style="shape=partialRectangle;whiteSpace=wrap;html=1;left=0;right=0;fillColor=none;" parent="1" vertex="1">
          <mxGeometry x="300" y="200" width="100" height="20" as="geometry" />
        </mxCell>
        <mxCell id="FPd_QH5sB4SjslSBsmsc-32" style="edgeStyle=orthogonalEdgeStyle;curved=1;rounded=0;orthogonalLoop=1;jettySize=auto;html=1;exitX=0.5;exitY=0;exitDx=0;exitDy=0;entryX=0;entryY=0.5;entryDx=0;entryDy=0;elbow=vertical;" parent="1" source="FPd_QH5sB4SjslSBsmsc-28" target="FPd_QH5sB4SjslSBsmsc-13" edge="1">
          <mxGeometry relative="1" as="geometry" />
        </mxCell>
        <mxCell id="FPd_QH5sB4SjslSBsmsc-28" value="Program Change queue" style="shape=partialRectangle;whiteSpace=wrap;html=1;left=0;right=0;fillColor=none;" parent="1" vertex="1">
          <mxGeometry x="280" y="310" width="150" height="20" as="geometry" />
        </mxCell>
        <mxCell id="FPd_QH5sB4SjslSBsmsc-29" style="edgeStyle=orthogonalEdgeStyle;curved=1;rounded=0;orthogonalLoop=1;jettySize=auto;html=1;exitX=1;exitY=0.5;exitDx=0;exitDy=0;elbow=vertical;" parent="1" source="FPd_QH5sB4SjslSBsmsc-4" target="FPd_QH5sB4SjslSBsmsc-27" edge="1">
          <mxGeometry relative="1" as="geometry" />
        </mxCell>
        <mxCell id="FPd_QH5sB4SjslSBsmsc-31" style="edgeStyle=orthogonalEdgeStyle;curved=1;rounded=0;orthogonalLoop=1;jettySize=auto;html=1;exitX=1;exitY=0.5;exitDx=0;exitDy=0;entryX=0.5;entryY=1;entryDx=0;entryDy=0;elbow=vertical;" parent="1" source="FPd_QH5sB4SjslSBsmsc-16" target="FPd_QH5sB4SjslSBsmsc-28" edge="1">
          <mxGeometry relative="1" as="geometry" />
        </mxCell>
      </root>
    </mxGraphModel>
  </diagram>
  <diagram id="P0NerHSrNL67rXnCUsoj" name="TerminalAo state machine">
    <mxGraphModel dx="1142" dy="753" grid="1" gridSize="10" guides="1" tooltips="1" connect="1" arrows="1" fold="1" page="1" pageScale="1" pageWidth="850" pageHeight="1100" math="0" shadow="0">
      <root>
        <mxCell id="0" />
        <mxCell id="1" parent="0" />
        <mxCell id="CBTjv1AuM0Sxt3gqDcCd-1" value="Idle" style="html=1;align=center;verticalAlign=top;rounded=1;absoluteArcSize=1;arcSize=10;dashed=0;whiteSpace=wrap;" parent="1" vertex="1">
          <mxGeometry x="10" y="80" width="260" height="200" as="geometry" />
        </mxCell>
        <mxCell id="CBTjv1AuM0Sxt3gqDcCd-2" value="ReadingProgramCode" style="html=1;align=center;verticalAlign=top;rounded=1;absoluteArcSize=1;arcSize=10;dashed=0;whiteSpace=wrap;" parent="1" vertex="1">
          <mxGeometry x="10" y="380" width="170" height="120" as="geometry" />
        </mxCell>
        <mxCell id="CBTjv1AuM0Sxt3gqDcCd-3" value="ReadingProgramSteps" style="html=1;align=center;verticalAlign=top;rounded=1;absoluteArcSize=1;arcSize=10;dashed=0;whiteSpace=wrap;" parent="1" vertex="1">
          <mxGeometry x="340" y="440" width="150" height="160" as="geometry" />
        </mxCell>
        <mxCell id="CBTjv1AuM0Sxt3gqDcCd-4" value="ReadingPin" style="html=1;align=center;verticalAlign=top;rounded=1;absoluteArcSize=1;arcSize=10;dashed=0;whiteSpace=wrap;" parent="1" vertex="1">
          <mxGeometry x="340" y="270" width="150" height="150" as="geometry" />
        </mxCell>
        <mxCell id="e2E6aYX3EsVZHu1SS4G4-19" style="edgeStyle=orthogonalEdgeStyle;rounded=0;orthogonalLoop=1;jettySize=auto;html=1;" parent="1" source="e2E6aYX3EsVZHu1SS4G4-6" target="CBTjv1AuM0Sxt3gqDcCd-1" edge="1">
          <mxGeometry relative="1" as="geometry" />
        </mxCell>
        <mxCell id="e2E6aYX3EsVZHu1SS4G4-6" value="" style="ellipse;fillColor=strokeColor;html=1;" parent="1" vertex="1">
          <mxGeometry x="130" y="10" width="20" height="20" as="geometry" />
        </mxCell>
        <mxCell id="e2E6aYX3EsVZHu1SS4G4-22" value="GotProgramSteps" style="edgeStyle=orthogonalEdgeStyle;rounded=0;orthogonalLoop=1;jettySize=auto;html=1;exitX=1;exitY=0.75;exitDx=0;exitDy=0;entryX=0;entryY=0.25;entryDx=0;entryDy=0;" parent="1" source="CBTjv1AuM0Sxt3gqDcCd-2" target="CBTjv1AuM0Sxt3gqDcCd-3" edge="1">
          <mxGeometry x="-0.4118" y="10" relative="1" as="geometry">
            <mxPoint x="237.5" y="427.5" as="sourcePoint" />
            <mxPoint as="offset" />
          </mxGeometry>
        </mxCell>
        <mxCell id="e2E6aYX3EsVZHu1SS4G4-23" value="InvalidData" style="edgeStyle=orthogonalEdgeStyle;rounded=0;orthogonalLoop=1;jettySize=auto;html=1;exitX=1;exitY=0.25;exitDx=0;exitDy=0;" parent="1" source="CBTjv1AuM0Sxt3gqDcCd-2" target="CBTjv1AuM0Sxt3gqDcCd-1" edge="1">
          <mxGeometry x="-0.619" y="-10" relative="1" as="geometry">
            <mxPoint x="237.5" y="372.5" as="sourcePoint" />
            <mxPoint as="offset" />
          </mxGeometry>
        </mxCell>
        <mxCell id="e2E6aYX3EsVZHu1SS4G4-17" value="GotPin" style="edgeStyle=orthogonalEdgeStyle;rounded=0;orthogonalLoop=1;jettySize=auto;html=1;exitX=1;exitY=0.5;exitDx=0;exitDy=0;" parent="1" source="CBTjv1AuM0Sxt3gqDcCd-2" target="CBTjv1AuM0Sxt3gqDcCd-4" edge="1">
          <mxGeometry x="-0.8" y="10" relative="1" as="geometry">
            <mxPoint as="offset" />
            <mxPoint x="265" y="400" as="sourcePoint" />
          </mxGeometry>
        </mxCell>
        <mxCell id="e2E6aYX3EsVZHu1SS4G4-29" value="" style="whiteSpace=wrap;html=1;aspect=fixed;" parent="1" vertex="1">
          <mxGeometry x="102.5" y="110" width="10" height="10" as="geometry" />
        </mxCell>
        <mxCell id="e2E6aYX3EsVZHu1SS4G4-33" value="[false; &#39;?&#39;]" style="endArrow=none;html=1;rounded=0;exitX=0.5;exitY=0;exitDx=0;exitDy=0;entryX=0.5;entryY=1;entryDx=0;entryDy=0;" parent="1" source="ujtrz9jq8Xq210N4Vgfi-2" target="e2E6aYX3EsVZHu1SS4G4-29" edge="1">
          <mxGeometry x="-0.2308" y="-22" width="50" height="50" relative="1" as="geometry">
            <mxPoint x="-160" y="190" as="sourcePoint" />
            <mxPoint x="100" y="60" as="targetPoint" />
            <mxPoint x="1" as="offset" />
          </mxGeometry>
        </mxCell>
        <mxCell id="ujtrz9jq8Xq210N4Vgfi-2" value="program&#xa;start" style="rhombus;" parent="1" vertex="1">
          <mxGeometry x="80" y="152.5" width="55" height="55" as="geometry" />
        </mxCell>
        <mxCell id="ujtrz9jq8Xq210N4Vgfi-3" value="Timeout" style="rounded=0;orthogonalLoop=1;jettySize=auto;html=1;entryX=0;entryY=0.5;entryDx=0;entryDy=0;exitX=0;exitY=0.5;exitDx=0;exitDy=0;" parent="1" source="CBTjv1AuM0Sxt3gqDcCd-1" target="ujtrz9jq8Xq210N4Vgfi-2" edge="1">
          <mxGeometry x="-0.1429" y="10" relative="1" as="geometry">
            <mxPoint x="130" y="410" as="sourcePoint" />
            <mxPoint x="190" y="410" as="targetPoint" />
            <mxPoint as="offset" />
          </mxGeometry>
        </mxCell>
        <mxCell id="ujtrz9jq8Xq210N4Vgfi-5" value="" style="whiteSpace=wrap;html=1;aspect=fixed;" parent="1" vertex="1">
          <mxGeometry x="200" y="175" width="10" height="10" as="geometry" />
        </mxCell>
        <mxCell id="ujtrz9jq8Xq210N4Vgfi-6" value="[false; else]" style="endArrow=none;html=1;rounded=0;exitX=1;exitY=0.5;exitDx=0;exitDy=0;entryX=0;entryY=0.5;entryDx=0;entryDy=0;" parent="1" source="ujtrz9jq8Xq210N4Vgfi-2" target="ujtrz9jq8Xq210N4Vgfi-5" edge="1">
          <mxGeometry x="-0.2308" y="10" width="50" height="50" relative="1" as="geometry">
            <mxPoint x="118" y="138" as="sourcePoint" />
            <mxPoint x="110" y="70" as="targetPoint" />
            <mxPoint as="offset" />
          </mxGeometry>
        </mxCell>
        <mxCell id="dtT0uWyfIqGJ4irfDM_z-1" value="program&#xa;end" style="rhombus;" parent="1" vertex="1">
          <mxGeometry x="398" y="492.5" width="55" height="55" as="geometry" />
        </mxCell>
        <mxCell id="dtT0uWyfIqGJ4irfDM_z-2" value="Timeout" style="rounded=0;orthogonalLoop=1;jettySize=auto;html=1;entryX=0;entryY=0.5;entryDx=0;entryDy=0;exitX=0;exitY=0.5;exitDx=0;exitDy=0;" parent="1" source="CBTjv1AuM0Sxt3gqDcCd-3" target="dtT0uWyfIqGJ4irfDM_z-1" edge="1">
          <mxGeometry relative="1" as="geometry">
            <mxPoint x="550" y="540" as="sourcePoint" />
            <mxPoint x="620" y="540" as="targetPoint" />
          </mxGeometry>
        </mxCell>
        <mxCell id="dtT0uWyfIqGJ4irfDM_z-7" value="[false]" style="endArrow=none;html=1;rounded=0;entryX=0.5;entryY=1;entryDx=0;entryDy=0;" parent="1" source="dtT0uWyfIqGJ4irfDM_z-8" target="dtT0uWyfIqGJ4irfDM_z-1" edge="1">
          <mxGeometry x="0.8462" y="-20" width="50" height="50" relative="1" as="geometry">
            <mxPoint x="410" y="580" as="sourcePoint" />
            <mxPoint x="148" y="70" as="targetPoint" />
            <mxPoint as="offset" />
          </mxGeometry>
        </mxCell>
        <mxCell id="dtT0uWyfIqGJ4irfDM_z-8" value="" style="whiteSpace=wrap;html=1;aspect=fixed;" parent="1" vertex="1">
          <mxGeometry x="420" y="570" width="10" height="10" as="geometry" />
        </mxCell>
        <mxCell id="e2E6aYX3EsVZHu1SS4G4-26" value="" style="edgeStyle=orthogonalEdgeStyle;rounded=0;orthogonalLoop=1;jettySize=auto;html=1;entryX=1;entryY=0.25;entryDx=0;entryDy=0;exitX=1;exitY=0.5;exitDx=0;exitDy=0;" parent="1" source="dtT0uWyfIqGJ4irfDM_z-1" edge="1" target="CBTjv1AuM0Sxt3gqDcCd-1">
          <mxGeometry x="-0.7936" y="-14" relative="1" as="geometry">
            <mxPoint x="437.5" y="527.5" as="sourcePoint" />
            <mxPoint x="300" y="100" as="targetPoint" />
            <Array as="points">
              <mxPoint x="520" y="520" />
              <mxPoint x="520" y="130" />
            </Array>
            <mxPoint x="11" y="-4" as="offset" />
          </mxGeometry>
        </mxCell>
        <mxCell id="dtT0uWyfIqGJ4irfDM_z-10" value="[true; &#39;}&#39;]" style="edgeLabel;html=1;align=center;verticalAlign=middle;resizable=0;points=[];" parent="e2E6aYX3EsVZHu1SS4G4-26" vertex="1" connectable="0">
          <mxGeometry x="-0.9203" y="1" relative="1" as="geometry">
            <mxPoint x="-5" y="-9" as="offset" />
          </mxGeometry>
        </mxCell>
        <mxCell id="AQzDyFrraz1Clmj7-8H0-1" value="Timeout" style="endArrow=none;html=1;rounded=0;entryX=0;entryY=0.5;entryDx=0;entryDy=0;exitX=0;exitY=0.5;exitDx=0;exitDy=0;" edge="1" parent="1" source="AQzDyFrraz1Clmj7-8H0-2" target="CBTjv1AuM0Sxt3gqDcCd-2">
          <mxGeometry x="0.3333" y="-10" width="50" height="50" relative="1" as="geometry">
            <mxPoint x="15" y="510" as="sourcePoint" />
            <mxPoint x="-185" y="410" as="targetPoint" />
            <mxPoint as="offset" />
          </mxGeometry>
        </mxCell>
        <mxCell id="AQzDyFrraz1Clmj7-8H0-2" value="" style="whiteSpace=wrap;html=1;aspect=fixed;" vertex="1" parent="1">
          <mxGeometry x="100" y="435" width="10" height="10" as="geometry" />
        </mxCell>
        <mxCell id="AQzDyFrraz1Clmj7-8H0-6" value="pin end" style="rhombus;" vertex="1" parent="1">
          <mxGeometry x="398" y="317.5" width="55" height="55" as="geometry" />
        </mxCell>
        <mxCell id="AQzDyFrraz1Clmj7-8H0-7" value="Timeout" style="rounded=0;orthogonalLoop=1;jettySize=auto;html=1;entryX=0;entryY=0.5;entryDx=0;entryDy=0;exitX=0;exitY=0.5;exitDx=0;exitDy=0;" edge="1" parent="1" source="CBTjv1AuM0Sxt3gqDcCd-4" target="AQzDyFrraz1Clmj7-8H0-6">
          <mxGeometry relative="1" as="geometry">
            <mxPoint x="350" y="530" as="sourcePoint" />
            <mxPoint x="408" y="530" as="targetPoint" />
          </mxGeometry>
        </mxCell>
        <mxCell id="AQzDyFrraz1Clmj7-8H0-8" value="" style="whiteSpace=wrap;html=1;aspect=fixed;" vertex="1" parent="1">
          <mxGeometry x="420.5" y="400" width="10" height="10" as="geometry" />
        </mxCell>
        <mxCell id="AQzDyFrraz1Clmj7-8H0-9" value="[false]" style="endArrow=none;html=1;rounded=0;entryX=0.5;entryY=1;entryDx=0;entryDy=0;exitX=0.5;exitY=0;exitDx=0;exitDy=0;" edge="1" parent="1" source="AQzDyFrraz1Clmj7-8H0-8" target="AQzDyFrraz1Clmj7-8H0-6">
          <mxGeometry x="0.8462" y="-20" width="50" height="50" relative="1" as="geometry">
            <mxPoint x="660" y="400" as="sourcePoint" />
            <mxPoint x="436" y="558" as="targetPoint" />
            <mxPoint as="offset" />
          </mxGeometry>
        </mxCell>
        <mxCell id="AQzDyFrraz1Clmj7-8H0-10" value="" style="edgeStyle=orthogonalEdgeStyle;rounded=0;orthogonalLoop=1;jettySize=auto;html=1;entryX=1;entryY=0.25;entryDx=0;entryDy=0;exitX=1;exitY=0.5;exitDx=0;exitDy=0;" edge="1" parent="1" source="AQzDyFrraz1Clmj7-8H0-6" target="CBTjv1AuM0Sxt3gqDcCd-1">
          <mxGeometry x="-0.7936" y="-14" relative="1" as="geometry">
            <mxPoint x="463" y="530" as="sourcePoint" />
            <mxPoint x="280" y="140" as="targetPoint" />
            <Array as="points">
              <mxPoint x="520" y="345" />
              <mxPoint x="520" y="130" />
            </Array>
            <mxPoint x="11" y="-4" as="offset" />
          </mxGeometry>
        </mxCell>
        <mxCell id="AQzDyFrraz1Clmj7-8H0-11" value="[true; &#39;}&#39;]" style="edgeLabel;html=1;align=center;verticalAlign=middle;resizable=0;points=[];" vertex="1" connectable="0" parent="AQzDyFrraz1Clmj7-8H0-10">
          <mxGeometry x="-0.9203" y="1" relative="1" as="geometry">
            <mxPoint x="-5" y="-9" as="offset" />
          </mxGeometry>
        </mxCell>
        <mxCell id="e2E6aYX3EsVZHu1SS4G4-27" value="" style="edgeStyle=orthogonalEdgeStyle;rounded=0;orthogonalLoop=1;jettySize=auto;html=1;exitX=0.5;exitY=1;exitDx=0;exitDy=0;" parent="1" source="ujtrz9jq8Xq210N4Vgfi-2" target="CBTjv1AuM0Sxt3gqDcCd-2" edge="1">
          <mxGeometry x="-0.2211" y="-10" relative="1" as="geometry">
            <Array as="points">
              <mxPoint x="108" y="250" />
              <mxPoint x="90" y="250" />
            </Array>
            <mxPoint x="130" y="360" as="targetPoint" />
            <mxPoint as="offset" />
          </mxGeometry>
        </mxCell>
        <mxCell id="e2E6aYX3EsVZHu1SS4G4-28" value="[true; &#39;{&#39;]" style="edgeLabel;html=1;align=center;verticalAlign=middle;resizable=0;points=[];" parent="e2E6aYX3EsVZHu1SS4G4-27" vertex="1" connectable="0">
          <mxGeometry x="0.0222" y="-1" relative="1" as="geometry">
            <mxPoint x="41" y="-67" as="offset" />
          </mxGeometry>
        </mxCell>
      </root>
    </mxGraphModel>
  </diagram>
</mxfile>
